<svg xmlns="http://www.w3.org/2000/svg" width="440" height="200" viewBox="0 0 440 200">
  <g id="Group_3" data-name="Group 3" transform="translate(942 -836)">
    <rect id="Rectangle_8" data-name="Rectangle 8" width="200" height="440" transform="translate(-942 1036) rotate(-90)" fill="#1f1f1f"/>
    <g id="Group_2" data-name="Group 2" transform="translate(-5 -16)">
      <path id="Path_3" data-name="Path 3" d="M0,0H49V100H0Z" transform="translate(-517 983) rotate(90)" fill="#e61818"/>
      <path id="Path_2" data-name="Path 2" d="M0,0H49V100H0Z" transform="translate(-617 983) rotate(90)" fill="#ef952e"/>
      <path id="Path_1" data-name="Path 1" d="M0,0H49V100H0Z" transform="translate(-717 983) rotate(90)" fill="#f7f728"/>
      <rect id="Rectangle_12" data-name="Rectangle 12" width="49" height="100" transform="translate(-817 983) rotate(90)" fill="#1bd130"/>
      <path id="Path_7" data-name="Path 7" d="M-17.54-7.3h4.78V-.98a4.436,4.436,0,0,1-1.77.94,7.876,7.876,0,0,1-2.23.32,6.8,6.8,0,0,1-2.51-.46A5.447,5.447,0,0,1-21.3-1.57a6.745,6.745,0,0,1-1.36-2.3,9.355,9.355,0,0,1-.5-3.21,8.153,8.153,0,0,1,.6-3.3,6.565,6.565,0,0,1,1.55-2.23,5.961,5.961,0,0,1,2.13-1.27,7.255,7.255,0,0,1,2.34-.4,8.84,8.84,0,0,1,2,.19,7.979,7.979,0,0,1,1.46.49v4.14h-2.2v-2.22l-.32-.08a4.5,4.5,0,0,0-.88-.08,4.055,4.055,0,0,0-1.52.28,3.108,3.108,0,0,0-1.21.87A4.1,4.1,0,0,0-20-9.18a7.609,7.609,0,0,0-.28,2.2A6.861,6.861,0,0,0-20-4.94a4.542,4.542,0,0,0,.78,1.52,3.3,3.3,0,0,0,1.19.94,3.5,3.5,0,0,0,1.49.32,3.529,3.529,0,0,0,.95-.12A1.931,1.931,0,0,0-15-2.52V-5.3h-2.54ZM-1.32-1.06a3.544,3.544,0,0,1-.67.47,6.53,6.53,0,0,1-.96.43A7.431,7.431,0,0,1-4.16.16a7.822,7.822,0,0,1-1.4.12A6.794,6.794,0,0,1-7.85-.08,4.593,4.593,0,0,1-9.56-1.13a4.6,4.6,0,0,1-1.07-1.66A6.169,6.169,0,0,1-11-5a5.879,5.879,0,0,1,.42-2.31A4.618,4.618,0,0,1-9.43-8.96a4.8,4.8,0,0,1,1.71-.99,6.6,6.6,0,0,1,2.12-.33,6.541,6.541,0,0,1,1.57.2,4.282,4.282,0,0,1,1.49.69A3.7,3.7,0,0,1-1.43-8.08,4.457,4.457,0,0,1-1-6a9.521,9.521,0,0,1-.2,1.86H-8.4a2.307,2.307,0,0,0,.27,1.08,2.138,2.138,0,0,0,.66.72,2.857,2.857,0,0,0,.94.41A4.731,4.731,0,0,0-5.4-1.8a5.85,5.85,0,0,0,1.97-.28,4.16,4.16,0,0,0,1.25-.68ZM-5.64-8.2a3.349,3.349,0,0,0-.98.14,2.759,2.759,0,0,0-.83.41,2.258,2.258,0,0,0-.61.67,2.04,2.04,0,0,0-.28.9h4.92a2.138,2.138,0,0,0-.55-1.55A2.222,2.222,0,0,0-5.64-8.2ZM10.68-1.06a3.544,3.544,0,0,1-.67.47,6.53,6.53,0,0,1-.96.43A7.431,7.431,0,0,1,7.84.16a7.822,7.822,0,0,1-1.4.12A6.794,6.794,0,0,1,4.15-.08,4.593,4.593,0,0,1,2.44-1.13,4.6,4.6,0,0,1,1.37-2.79,6.169,6.169,0,0,1,1-5a5.879,5.879,0,0,1,.42-2.31A4.618,4.618,0,0,1,2.57-8.96a4.8,4.8,0,0,1,1.71-.99,6.6,6.6,0,0,1,2.12-.33,6.541,6.541,0,0,1,1.57.2,4.282,4.282,0,0,1,1.49.69,3.7,3.7,0,0,1,1.11,1.31A4.457,4.457,0,0,1,11-6a9.521,9.521,0,0,1-.2,1.86H3.6a2.307,2.307,0,0,0,.27,1.08,2.138,2.138,0,0,0,.66.72,2.857,2.857,0,0,0,.94.41A4.731,4.731,0,0,0,6.6-1.8a5.85,5.85,0,0,0,1.97-.28,4.16,4.16,0,0,0,1.25-.68ZM6.36-8.2a3.349,3.349,0,0,0-.98.14,2.759,2.759,0,0,0-.83.41,2.258,2.258,0,0,0-.61.67,2.04,2.04,0,0,0-.28.9H8.58a2.138,2.138,0,0,0-.55-1.55A2.222,2.222,0,0,0,6.36-8.2ZM12.24-10h3.5l.3,1.32h.08A3.97,3.97,0,0,1,17.44-9.8a4.164,4.164,0,0,1,2.06-.48,4.7,4.7,0,0,1,1.39.2A2.641,2.641,0,0,1,22-9.42a3.2,3.2,0,0,1,.73,1.25A6.087,6.087,0,0,1,23-6.22V0H20.4V-5.68a2.39,2.39,0,0,0-.55-1.76,1.9,1.9,0,0,0-1.39-.54,2.291,2.291,0,0,0-1.35.43,2.152,2.152,0,0,0-.83,1.07V0h-2.6V-7.8H12.24Z" transform="translate(-867 1014)" fill="#fff"/>
      <path id="Path_6" data-name="Path 6" d="M-15.72-5.7h2.48V0h-9.2V-14h2.74V-2.44h3.98Zm5.52-3.62a10.915,10.915,0,0,1,1.85-.62,10.461,10.461,0,0,1,2.49-.26,5.5,5.5,0,0,1,1.77.25,2.958,2.958,0,0,1,1.18.71,2.7,2.7,0,0,1,.65,1.1,4.819,4.819,0,0,1,.2,1.44q0,1.02-.07,1.74T-2.2-3.68q0,.42.04.94.04.28.06.54H-.8V0H-4.12l-.26-1.36h-.1A3.466,3.466,0,0,1-5.62-.29a3.831,3.831,0,0,1-2,.45A3.4,3.4,0,0,1-10-.64a2.727,2.727,0,0,1-.88-2.12,3.165,3.165,0,0,1,.31-1.45,2.591,2.591,0,0,1,.9-1,4.289,4.289,0,0,1,1.42-.58A8.306,8.306,0,0,1-6.4-5.98q.36,0,.76.04t.98.08a2.035,2.035,0,0,0,.04-.4v-.38a1.275,1.275,0,0,0-.44-1.09,2.148,2.148,0,0,0-1.3-.33A6.074,6.074,0,0,0-8.2-7.8a11.792,11.792,0,0,0-1.38.52Zm3.42,7.34a2.439,2.439,0,0,0,1.44-.35,2.365,2.365,0,0,0,.7-.75v-1.2q-.2-.04-.6-.09a6.948,6.948,0,0,0-.86-.05,4.187,4.187,0,0,0-.76.07,2.545,2.545,0,0,0-.68.22,1.331,1.331,0,0,0-.48.39.939.939,0,0,0-.18.58,1.136,1.136,0,0,0,.33.87A1.566,1.566,0,0,0-6.78-1.98ZM1.8-9.32a10.915,10.915,0,0,1,1.85-.62,10.461,10.461,0,0,1,2.49-.26,5.5,5.5,0,0,1,1.77.25,2.958,2.958,0,0,1,1.18.71,2.7,2.7,0,0,1,.65,1.1,4.819,4.819,0,0,1,.2,1.44q0,1.02-.07,1.74T9.8-3.68q0,.42.04.94.04.28.06.54h1.3V0H7.88L7.62-1.36h-.1A3.466,3.466,0,0,1,6.38-.29a3.831,3.831,0,0,1-2,.45A3.4,3.4,0,0,1,2-.64a2.727,2.727,0,0,1-.88-2.12,3.165,3.165,0,0,1,.31-1.45,2.591,2.591,0,0,1,.9-1,4.289,4.289,0,0,1,1.42-.58A8.306,8.306,0,0,1,5.6-5.98q.36,0,.76.04t.98.08a2.035,2.035,0,0,0,.04-.4v-.38a1.275,1.275,0,0,0-.44-1.09,2.148,2.148,0,0,0-1.3-.33A6.074,6.074,0,0,0,3.8-7.8a11.792,11.792,0,0,0-1.38.52ZM5.22-1.98a2.439,2.439,0,0,0,1.44-.35,2.365,2.365,0,0,0,.7-.75v-1.2q-.2-.04-.6-.09a6.948,6.948,0,0,0-.86-.05,4.187,4.187,0,0,0-.76.07,2.545,2.545,0,0,0-.68.22,1.331,1.331,0,0,0-.48.39.939.939,0,0,0-.18.58,1.136,1.136,0,0,0,.33.87A1.566,1.566,0,0,0,5.22-1.98ZM22.6,0a4.441,4.441,0,0,1-.37,1.88,3.682,3.682,0,0,1-1.02,1.33,4.2,4.2,0,0,1-1.54.78,7.193,7.193,0,0,1-1.95.25,7.852,7.852,0,0,1-1.35-.11,7.759,7.759,0,0,1-1.16-.29,6.515,6.515,0,0,1-.93-.39,3.687,3.687,0,0,1-.64-.41l1-1.84a7.323,7.323,0,0,0,1.15.61,4.273,4.273,0,0,0,1.69.29,2.825,2.825,0,0,0,1.92-.58,2.092,2.092,0,0,0,.66-1.66V-.78h-.08a2.094,2.094,0,0,1-1.06.71A5.192,5.192,0,0,1,17.3.16a5.059,5.059,0,0,1-1.77-.3,3.808,3.808,0,0,1-1.41-.91,4.115,4.115,0,0,1-.93-1.55,6.643,6.643,0,0,1-.33-2.2,6.522,6.522,0,0,1,.39-2.34,4.67,4.67,0,0,1,1.1-1.71,4.606,4.606,0,0,1,1.7-1.04,6.6,6.6,0,0,1,2.21-.35q.64,0,1.28.05t1.21.13q.57.08,1.05.19a6.391,6.391,0,0,1,.8.23ZM17.8-1.92a2.766,2.766,0,0,0,1.37-.34A1.737,1.737,0,0,0,20-3.28v-4.5a3.182,3.182,0,0,0-.79-.19,7.144,7.144,0,0,0-.97-.07,3.021,3.021,0,0,0-1.05.18,2.235,2.235,0,0,0-.86.57,2.732,2.732,0,0,0-.58.98,4.216,4.216,0,0,0-.21,1.41,4.18,4.18,0,0,0,.18,1.28,2.744,2.744,0,0,0,.5.94,2.146,2.146,0,0,0,.72.57A1.979,1.979,0,0,0,17.8-1.92Z" transform="translate(-767 1014)"/>
      <path id="Path_5" data-name="Path 5" d="M-29.54-7.3h4.78V-.98a4.436,4.436,0,0,1-1.77.94,7.876,7.876,0,0,1-2.23.32,6.8,6.8,0,0,1-2.51-.46A5.447,5.447,0,0,1-33.3-1.57a6.745,6.745,0,0,1-1.36-2.3,9.355,9.355,0,0,1-.5-3.21,8.153,8.153,0,0,1,.6-3.3,6.565,6.565,0,0,1,1.55-2.23,5.961,5.961,0,0,1,2.13-1.27,7.255,7.255,0,0,1,2.34-.4,8.84,8.84,0,0,1,2,.19,7.979,7.979,0,0,1,1.46.49v4.14h-2.2v-2.22l-.32-.08a4.5,4.5,0,0,0-.88-.08,4.055,4.055,0,0,0-1.52.28,3.108,3.108,0,0,0-1.21.87A4.1,4.1,0,0,0-32-9.18a7.61,7.61,0,0,0-.28,2.2A6.861,6.861,0,0,0-32-4.94a4.542,4.542,0,0,0,.78,1.52,3.3,3.3,0,0,0,1.19.94,3.5,3.5,0,0,0,1.49.32,3.529,3.529,0,0,0,.95-.12A1.931,1.931,0,0,0-27-2.52V-5.3h-2.54Zm16.22,6.24a3.544,3.544,0,0,1-.67.47,6.53,6.53,0,0,1-.96.43,7.431,7.431,0,0,1-1.21.32,7.822,7.822,0,0,1-1.4.12,6.794,6.794,0,0,1-2.29-.36,4.593,4.593,0,0,1-1.71-1.05,4.6,4.6,0,0,1-1.07-1.66A6.169,6.169,0,0,1-23-5a5.879,5.879,0,0,1,.42-2.31,4.618,4.618,0,0,1,1.15-1.65,4.8,4.8,0,0,1,1.71-.99,6.6,6.6,0,0,1,2.12-.33,6.541,6.541,0,0,1,1.57.2,4.282,4.282,0,0,1,1.49.69,3.7,3.7,0,0,1,1.11,1.31A4.457,4.457,0,0,1-13-6a9.521,9.521,0,0,1-.2,1.86h-7.2a2.307,2.307,0,0,0,.27,1.08,2.138,2.138,0,0,0,.66.72,2.857,2.857,0,0,0,.94.41,4.731,4.731,0,0,0,1.13.13,5.85,5.85,0,0,0,1.97-.28,4.16,4.16,0,0,0,1.25-.68ZM-17.64-8.2a3.349,3.349,0,0,0-.98.14,2.759,2.759,0,0,0-.83.41,2.258,2.258,0,0,0-.61.67,2.04,2.04,0,0,0-.28.9h4.92a2.138,2.138,0,0,0-.55-1.55A2.222,2.222,0,0,0-17.64-8.2ZM-7.18,0V-6.12a4.752,4.752,0,0,0-.08-.97,1.866,1.866,0,0,0-.21-.58.64.64,0,0,0-.32-.28,1.12,1.12,0,0,0-.39-.07,1.021,1.021,0,0,0-.63.22,1.065,1.065,0,0,0-.39.56V0h-2.4V-10h1.9l.28,1.1h.06a2.452,2.452,0,0,1,.88-.95,2.474,2.474,0,0,1,1.36-.37,2.641,2.641,0,0,1,1.26.32,1.7,1.7,0,0,1,.82,1.12,2.232,2.232,0,0,1,.92-1.07,2.569,2.569,0,0,1,1.34-.37,2.934,2.934,0,0,1,.97.15,1.708,1.708,0,0,1,.75.53A2.6,2.6,0,0,1-.57-8.51,6.771,6.771,0,0,1-.4-6.84V0H-2.8V-6.4a2.058,2.058,0,0,0-.29-1.26.881.881,0,0,0-.71-.36,1.108,1.108,0,0,0-.62.17.9.9,0,0,0-.36.55V0ZM1.18-2.2H4.7V-7.8H1.18V-10H7.3v7.8H11V0H1.18ZM4.22-12.72a1.414,1.414,0,0,1,.46-1.06,1.776,1.776,0,0,1,1.28-.44,1.956,1.956,0,0,1,1.34.44,1.364,1.364,0,0,1,.5,1.06,1.3,1.3,0,0,1-.5,1.05,2.049,2.049,0,0,1-1.34.41,1.857,1.857,0,0,1-1.28-.41A1.343,1.343,0,0,1,4.22-12.72ZM18.12-14H22.3v8.64a27.153,27.153,0,0,0,.16,2.96,1.017,1.017,0,0,0,.02.2h1.28V0H20.54l-.26-1.28H20.2a2.23,2.23,0,0,1-.54.64,4.013,4.013,0,0,1-.76.49,3.943,3.943,0,0,1-.92.32,4.642,4.642,0,0,1-1,.11,5.167,5.167,0,0,1-1.77-.3,3.842,3.842,0,0,1-1.45-.93,4.451,4.451,0,0,1-.98-1.6,6.58,6.58,0,0,1-.36-2.29,6.239,6.239,0,0,1,.39-2.28,4.841,4.841,0,0,1,1.08-1.69,4.723,4.723,0,0,1,1.63-1.06,5.577,5.577,0,0,1,2.06-.37,9.277,9.277,0,0,1,1.17.07,3.891,3.891,0,0,1,.95.23V-11.8H18.12ZM17.58-1.92a2.487,2.487,0,0,0,1.35-.37,1.719,1.719,0,0,0,.77-1.07V-7.6a1.917,1.917,0,0,0-.77-.33,4.691,4.691,0,0,0-1.03-.11,3.132,3.132,0,0,0-1.05.18,2.379,2.379,0,0,0-.9.57,2.762,2.762,0,0,0-.62,1.01,4.395,4.395,0,0,0-.23,1.52,3.145,3.145,0,0,0,.64,2.06A2.244,2.244,0,0,0,17.58-1.92Zm10.8.6a1.444,1.444,0,0,1,.44-1.11,1.633,1.633,0,0,1,1.16-.41,1.691,1.691,0,0,1,1.2.41,1.444,1.444,0,0,1,.44,1.11A1.476,1.476,0,0,1,31.18-.2a1.666,1.666,0,0,1-1.2.42A1.61,1.61,0,0,1,28.82-.2,1.476,1.476,0,0,1,28.38-1.32Z" transform="translate(-667 1014)" fill="#fff"/>
      <path id="Path_4" data-name="Path 4" d="M-15.74-5.86h-4.52V0H-23V-14h2.74v5.7h4.52V-14H-13V0h-2.74ZM-11.3-5a6.163,6.163,0,0,1,.38-2.24A4.593,4.593,0,0,1-9.84-8.9,4.607,4.607,0,0,1-8.17-9.93,6.36,6.36,0,0,1-6-10.28a6.244,6.244,0,0,1,2.25.38A4.644,4.644,0,0,1-2.08-8.83,4.5,4.5,0,0,1-1.05-7.16,6.383,6.383,0,0,1-.7-5a6.163,6.163,0,0,1-.38,2.24A4.593,4.593,0,0,1-2.16-1.1,4.607,4.607,0,0,1-3.83-.07,6.36,6.36,0,0,1-6,.28,6.244,6.244,0,0,1-8.25-.1,4.644,4.644,0,0,1-9.92-1.17a4.5,4.5,0,0,1-1.03-1.67A6.383,6.383,0,0,1-11.3-5Zm2.68,0a3.967,3.967,0,0,0,.18,1.22,3,3,0,0,0,.52.98,2.351,2.351,0,0,0,.82.65A2.516,2.516,0,0,0-6-1.92a2.539,2.539,0,0,0,1.89-.74A3.227,3.227,0,0,0-3.38-5a3.463,3.463,0,0,0-.68-2.23A2.34,2.34,0,0,0-6-8.08a3.094,3.094,0,0,0-1.04.17,2.039,2.039,0,0,0-.83.55,2.689,2.689,0,0,0-.55.96A4.317,4.317,0,0,0-8.62-5ZM.7-5a6.163,6.163,0,0,1,.38-2.24A4.593,4.593,0,0,1,2.16-8.9,4.607,4.607,0,0,1,3.83-9.93,6.36,6.36,0,0,1,6-10.28a6.244,6.244,0,0,1,2.25.38A4.644,4.644,0,0,1,9.92-8.83a4.5,4.5,0,0,1,1.03,1.67A6.383,6.383,0,0,1,11.3-5a6.163,6.163,0,0,1-.38,2.24A4.593,4.593,0,0,1,9.84-1.1,4.607,4.607,0,0,1,8.17-.07,6.36,6.36,0,0,1,6,.28,6.244,6.244,0,0,1,3.75-.1,4.644,4.644,0,0,1,2.08-1.17,4.5,4.5,0,0,1,1.05-2.84,6.383,6.383,0,0,1,.7-5ZM3.38-5a3.967,3.967,0,0,0,.18,1.22,3,3,0,0,0,.52.98,2.351,2.351,0,0,0,.82.65A2.516,2.516,0,0,0,6-1.92a2.539,2.539,0,0,0,1.89-.74A3.227,3.227,0,0,0,8.62-5a3.463,3.463,0,0,0-.68-2.23A2.34,2.34,0,0,0,6-8.08a3.094,3.094,0,0,0-1.04.17,2.039,2.039,0,0,0-.83.55,2.689,2.689,0,0,0-.55.96A4.317,4.317,0,0,0,3.38-5ZM22.6,0a4.441,4.441,0,0,1-.37,1.88,3.682,3.682,0,0,1-1.02,1.33,4.2,4.2,0,0,1-1.54.78,7.193,7.193,0,0,1-1.95.25,7.852,7.852,0,0,1-1.35-.11,7.759,7.759,0,0,1-1.16-.29,6.515,6.515,0,0,1-.93-.39,3.687,3.687,0,0,1-.64-.41l1-1.84a7.323,7.323,0,0,0,1.15.61,4.273,4.273,0,0,0,1.69.29,2.825,2.825,0,0,0,1.92-.58,2.092,2.092,0,0,0,.66-1.66V-.78h-.08a2.094,2.094,0,0,1-1.06.71A5.192,5.192,0,0,1,17.3.16a5.059,5.059,0,0,1-1.77-.3,3.808,3.808,0,0,1-1.41-.91,4.115,4.115,0,0,1-.93-1.55,6.643,6.643,0,0,1-.33-2.2,6.522,6.522,0,0,1,.39-2.34,4.67,4.67,0,0,1,1.1-1.71,4.606,4.606,0,0,1,1.7-1.04,6.6,6.6,0,0,1,2.21-.35q.64,0,1.28.05t1.21.13q.57.08,1.05.19a6.391,6.391,0,0,1,.8.23ZM17.8-1.92a2.766,2.766,0,0,0,1.37-.34A1.737,1.737,0,0,0,20-3.28v-4.5a3.182,3.182,0,0,0-.79-.19,7.144,7.144,0,0,0-.97-.07,3.021,3.021,0,0,0-1.05.18,2.235,2.235,0,0,0-.86.57,2.732,2.732,0,0,0-.58.98,4.216,4.216,0,0,0-.21,1.41,4.18,4.18,0,0,0,.18,1.28,2.744,2.744,0,0,0,.5.94,2.146,2.146,0,0,0,.72.57A1.979,1.979,0,0,0,17.8-1.92Z" transform="translate(-567 1014)" fill="#fff"/>
    </g>
    <path id="Path_14" data-name="Path 14" d="M18.655-18.8a7.479,7.479,0,0,1-.227,1.82,5,5,0,0,1-.753,1.663,5.3,5.3,0,0,1-1.365,1.33,5.957,5.957,0,0,1-2.03.858v.21a8.217,8.217,0,0,1,1.995.6,5.118,5.118,0,0,1,1.645,1.155,5.306,5.306,0,0,1,1.1,1.785,6.936,6.936,0,0,1,.4,2.485,6.39,6.39,0,0,1-.805,3.273,6.642,6.642,0,0,1-2.153,2.257A9.9,9.9,0,0,1,13.4-.07,14.807,14.807,0,0,1,9.87.35H8.347Q7.42.35,6.352.3T4.182.14A15.529,15.529,0,0,1,2.17-.175v-24.15q.665-.105,1.522-.21T5.53-24.71q.98-.07,2.012-.105T9.59-24.85a20.961,20.961,0,0,1,3.343.262,9.541,9.541,0,0,1,2.9.927,5.321,5.321,0,0,1,2.047,1.855A5.44,5.44,0,0,1,18.655-18.8ZM9.9-3.605a6.835,6.835,0,0,0,1.7-.21,4.452,4.452,0,0,0,1.453-.648,3.4,3.4,0,0,0,1.015-1.1,3.09,3.09,0,0,0,.385-1.575A3.183,3.183,0,0,0,14-8.96a3.091,3.091,0,0,0-1.19-1.032,4.906,4.906,0,0,0-1.645-.473,15.865,15.865,0,0,0-1.82-.1H6.79v6.755a2.162,2.162,0,0,0,.56.1q.385.035.823.053l.91.035Q9.555-3.605,9.9-3.605ZM8.33-14.21q.49,0,1.137-.035a9.974,9.974,0,0,0,1.068-.1,6.342,6.342,0,0,0,2.292-1.26,2.786,2.786,0,0,0,.963-2.2,2.932,2.932,0,0,0-.35-1.5,2.666,2.666,0,0,0-.928-.945,3.926,3.926,0,0,0-1.312-.49,8.218,8.218,0,0,0-1.54-.14q-.91,0-1.68.035a10.654,10.654,0,0,0-1.19.105v6.545ZM39.69-1.855a6.2,6.2,0,0,1-1.172.822,11.427,11.427,0,0,1-1.68.753A13,13,0,0,1,34.72.28a13.688,13.688,0,0,1-2.45.21,11.89,11.89,0,0,1-4.007-.63A8.039,8.039,0,0,1,25.27-1.977,8.047,8.047,0,0,1,23.4-4.883,10.8,10.8,0,0,1,22.75-8.75a10.289,10.289,0,0,1,.735-4.043A8.082,8.082,0,0,1,25.5-15.68a8.4,8.4,0,0,1,2.993-1.733,11.555,11.555,0,0,1,3.71-.577,11.447,11.447,0,0,1,2.748.35,7.493,7.493,0,0,1,2.607,1.207A6.468,6.468,0,0,1,39.5-14.14a7.8,7.8,0,0,1,.752,3.64,16.662,16.662,0,0,1-.35,3.255H27.3a4.036,4.036,0,0,0,.472,1.89,3.742,3.742,0,0,0,1.155,1.26,5,5,0,0,0,1.645.717,8.28,8.28,0,0,0,1.977.227A10.237,10.237,0,0,0,36-3.64a7.281,7.281,0,0,0,2.188-1.19ZM32.13-14.35a5.86,5.86,0,0,0-1.715.245,4.828,4.828,0,0,0-1.453.717A3.952,3.952,0,0,0,27.9-12.215a3.57,3.57,0,0,0-.49,1.575h8.61a3.742,3.742,0,0,0-.963-2.713A3.889,3.889,0,0,0,32.13-14.35ZM54.285-13.3,56.91-5.635h.175l.315-3.01L58.835-17.5h4.1L59.4,0H54.81L52.85-6.93h-.175L50.47,0H45.745L42.07-17.5h4.55l1.715,9.695.28,2.17h.175L51.38-13.3Zm9.94,4.55a10.786,10.786,0,0,1,.665-3.92,8.039,8.039,0,0,1,1.89-2.9,8.062,8.062,0,0,1,2.923-1.8,11.129,11.129,0,0,1,3.8-.613,10.927,10.927,0,0,1,3.938.665,8.127,8.127,0,0,1,2.923,1.873,7.87,7.87,0,0,1,1.8,2.922,11.17,11.17,0,0,1,.613,3.78,10.786,10.786,0,0,1-.665,3.92,8.039,8.039,0,0,1-1.89,2.9A8.062,8.062,0,0,1,77.3-.123,11.129,11.129,0,0,1,73.5.49a10.927,10.927,0,0,1-3.937-.665A8.127,8.127,0,0,1,66.64-2.047a7.87,7.87,0,0,1-1.8-2.923A11.17,11.17,0,0,1,64.225-8.75Zm4.69,0a6.943,6.943,0,0,0,.315,2.135A5.247,5.247,0,0,0,70.14-4.9a4.113,4.113,0,0,0,1.435,1.138,4.4,4.4,0,0,0,1.925.4,4.443,4.443,0,0,0,3.308-1.3A5.648,5.648,0,0,0,78.085-8.75a6.06,6.06,0,0,0-1.19-3.9,4.1,4.1,0,0,0-3.4-1.488,5.414,5.414,0,0,0-1.82.3,3.568,3.568,0,0,0-1.452.962,4.707,4.707,0,0,0-.963,1.68A7.555,7.555,0,0,0,68.915-8.75ZM87.045-24.5H94.5V-8.33a7.5,7.5,0,0,0,.665,3.745A2.338,2.338,0,0,0,97.3-3.535a5.879,5.879,0,0,0,1.785-.227,6.826,6.826,0,0,0,1.4-.647L102.2-1.26q-.595.385-1.19.717a7.658,7.658,0,0,1-1.26.56A8.543,8.543,0,0,1,98.3.368,11.568,11.568,0,0,1,96.53.49,6.617,6.617,0,0,1,91.6-1.19,6.519,6.519,0,0,1,89.95-5.95v-14.7h-2.9ZM105-24.5h7.42v13.965h1.05l5.74-6.965h5.355L117.5-9.52l4.585,5.67h3.255V0h-5.67l-6.02-7.245H112.42V0h-4.55V-20.65H105ZM128.065-3.85h6.16v-9.8h-6.16V-17.5h10.71V-3.85h6.475V0H128.065Zm5.32-18.41a2.475,2.475,0,0,1,.805-1.855,3.109,3.109,0,0,1,2.24-.77,3.422,3.422,0,0,1,2.345.77,2.387,2.387,0,0,1,.875,1.855,2.271,2.271,0,0,1-.875,1.837,3.586,3.586,0,0,1-2.345.718,3.25,3.25,0,0,1-2.24-.718A2.351,2.351,0,0,1,133.385-22.26ZM147.42-17.5h6.125l.525,2.31h.14a6.947,6.947,0,0,1,2.31-1.96,7.288,7.288,0,0,1,3.6-.84,8.229,8.229,0,0,1,2.432.35,4.621,4.621,0,0,1,1.943,1.155,5.6,5.6,0,0,1,1.277,2.187,10.653,10.653,0,0,1,.473,3.413V0H161.7V-9.94a4.182,4.182,0,0,0-.962-3.08,3.33,3.33,0,0,0-2.433-.945,4.009,4.009,0,0,0-2.362.752,3.766,3.766,0,0,0-1.452,1.872V0h-4.55V-13.65h-2.52ZM186.55,0a7.772,7.772,0,0,1-.648,3.29,6.443,6.443,0,0,1-1.785,2.328,7.353,7.353,0,0,1-2.695,1.365,12.588,12.588,0,0,1-3.413.438,13.74,13.74,0,0,1-2.362-.193,13.579,13.579,0,0,1-2.03-.507,11.4,11.4,0,0,1-1.627-.683,6.452,6.452,0,0,1-1.12-.718l1.75-3.22a12.816,12.816,0,0,0,2.013,1.068,7.478,7.478,0,0,0,2.957.507,4.943,4.943,0,0,0,3.36-1.015,3.661,3.661,0,0,0,1.155-2.9v-1.12h-.14A3.664,3.664,0,0,1,180.11-.123a9.085,9.085,0,0,1-2.835.4,8.853,8.853,0,0,1-3.1-.525,6.664,6.664,0,0,1-2.467-1.592,7.2,7.2,0,0,1-1.628-2.712,11.625,11.625,0,0,1-.577-3.85,11.414,11.414,0,0,1,.682-4.1,8.173,8.173,0,0,1,1.925-2.993,8.061,8.061,0,0,1,2.975-1.82,11.545,11.545,0,0,1,3.868-.612q1.12,0,2.24.087t2.117.227q1,.14,1.837.333a11.184,11.184,0,0,1,1.4.4Zm-8.4-3.36a4.84,4.84,0,0,0,2.4-.595A3.039,3.039,0,0,0,182-5.74v-7.875a5.569,5.569,0,0,0-1.383-.333,12.5,12.5,0,0,0-1.7-.123,5.287,5.287,0,0,0-1.837.315,3.912,3.912,0,0,0-1.505,1,4.782,4.782,0,0,0-1.015,1.715,7.379,7.379,0,0,0-.367,2.467,7.316,7.316,0,0,0,.315,2.24,4.8,4.8,0,0,0,.875,1.645,3.755,3.755,0,0,0,1.26,1A3.463,3.463,0,0,0,178.15-3.36Z" transform="translate(-816 889)" fill="#fff"/>
    <path id="Path_13" data-name="Path 13" d="M1.71-13.3H3.287V-1.406H8.664V-4.712H10.07V0H1.71ZM13.452-8.759A6.035,6.035,0,0,1,15.3-9.443a10.074,10.074,0,0,1,2.014-.209,3.6,3.6,0,0,1,1.587.3,2.57,2.57,0,0,1,.969.789,2.78,2.78,0,0,1,.475,1.1,6.331,6.331,0,0,1,.123,1.245q0,.722-.038,1.539T20.368-3.04a13.664,13.664,0,0,0,.114,1.805h1.273V0H19.228l-.171-1.425h-.095a4.85,4.85,0,0,1-.342.437,3.129,3.129,0,0,1-.6.523,3.867,3.867,0,0,1-.9.446,3.731,3.731,0,0,1-1.254.19,3.238,3.238,0,0,1-2.223-.722,2.5,2.5,0,0,1-.817-1.976,2.866,2.866,0,0,1,.427-1.615,2.7,2.7,0,0,1,1.226-.988,5.615,5.615,0,0,1,1.929-.4,12.952,12.952,0,0,1,2.537.152,6.736,6.736,0,0,0,.028-1.453,2,2,0,0,0-.3-.922A1.273,1.273,0,0,0,18-8.236a3.369,3.369,0,0,0-1.054-.143,5.572,5.572,0,0,0-1.634.238q-.779.237-1.387.484ZM16.245-1.1a2.792,2.792,0,0,0,.988-.171,3.012,3.012,0,0,0,.8-.437,2.9,2.9,0,0,0,.57-.579,2.8,2.8,0,0,0,.342-.6v-1.33a10.75,10.75,0,0,0-1.824-.171,5.107,5.107,0,0,0-1.444.181,2.014,2.014,0,0,0-.95.56,1.421,1.421,0,0,0-.342.988,1.563,1.563,0,0,0,.427,1.092A1.877,1.877,0,0,0,16.245-1.1Zm8.322-5.073q0-.171-.01-.447t-.028-.57q-.019-.295-.048-.58t-.066-.494H23.142V-9.5h2.546l.171,1.539h.095a3.212,3.212,0,0,1,.5-.636,3.949,3.949,0,0,1,.732-.57,3.876,3.876,0,0,1,.931-.409A3.793,3.793,0,0,1,29.2-9.728a5.725,5.725,0,0,1,1.549.19,2.359,2.359,0,0,1,1.121.674,3.128,3.128,0,0,1,.674,1.311,8.068,8.068,0,0,1,.228,2.1V0H31.293V-5.168a4.439,4.439,0,0,0-.513-2.375,2.042,2.042,0,0,0-1.862-.8,2.413,2.413,0,0,0-.959.2,3.312,3.312,0,0,0-.846.522,3.6,3.6,0,0,0-.665.751,3.152,3.152,0,0,0-.418.9V0H24.567ZM40.831-13.3h3.078V-3.249q0,.171.019.428t.048.541q.029.285.066.561t.076.485h1.273V0H42.864l-.19-1.463H42.6A3.355,3.355,0,0,1,41.354-.257a3.705,3.705,0,0,1-1.91.485A3.908,3.908,0,0,1,36.281-.979a5.749,5.749,0,0,1-1.017-3.752,6.067,6.067,0,0,1,.342-2.119,4.089,4.089,0,0,1,.979-1.539,4.231,4.231,0,0,1,1.53-.94,5.833,5.833,0,0,1,1.995-.323q.4,0,.713.019t.579.057a3.926,3.926,0,0,1,.5.1q.238.067.523.142v-2.7h-1.6ZM39.691-1.045a2.627,2.627,0,0,0,1.824-.6,3.209,3.209,0,0,0,.912-1.8V-7.847a2.943,2.943,0,0,0-.941-.418A5.771,5.771,0,0,0,40.109-8.4a3.215,3.215,0,0,0-2.394.883,3.83,3.83,0,0,0-.874,2.784,7.028,7.028,0,0,0,.143,1.454,3.286,3.286,0,0,0,.475,1.168,2.34,2.34,0,0,0,.883.779A2.91,2.91,0,0,0,39.691-1.045ZM47.595,0V-1.273H50.9V-8.227H47.595V-9.5h4.826v8.227h3.23V0Zm2.793-12.2a1.258,1.258,0,0,1,.342-.884,1.137,1.137,0,0,1,.874-.37,1.251,1.251,0,0,1,.921.37,1.206,1.206,0,0,1,.371.884,1.094,1.094,0,0,1-.371.836,1.307,1.307,0,0,1-.921.342,1.184,1.184,0,0,1-.874-.342A1.137,1.137,0,0,1,50.388-12.2Zm8.379,6.023q0-.171-.009-.447t-.028-.57q-.019-.295-.048-.58t-.066-.494H57.342V-9.5h2.546l.171,1.539h.1a3.212,3.212,0,0,1,.5-.636,3.949,3.949,0,0,1,.731-.57,3.876,3.876,0,0,1,.931-.409A3.793,3.793,0,0,1,63.4-9.728a5.725,5.725,0,0,1,1.549.19,2.359,2.359,0,0,1,1.121.674,3.128,3.128,0,0,1,.674,1.311,8.068,8.068,0,0,1,.228,2.1V0H65.493V-5.168a4.439,4.439,0,0,0-.513-2.375,2.042,2.042,0,0,0-1.862-.8,2.413,2.413,0,0,0-.959.2,3.312,3.312,0,0,0-.846.522,3.6,3.6,0,0,0-.665.751,3.152,3.152,0,0,0-.418.9V0H58.767ZM78.356.475a3.422,3.422,0,0,1-.342,1.568,3.079,3.079,0,0,1-.94,1.111,4.243,4.243,0,0,1-1.4.656,6.528,6.528,0,0,1-1.729.218A7.482,7.482,0,0,1,71.991,3.8a5.822,5.822,0,0,1-1.444-.589l.722-1.349a2.18,2.18,0,0,0,.446.294,4.706,4.706,0,0,0,.637.266,5.462,5.462,0,0,0,.769.2,4.408,4.408,0,0,0,.808.076,5.431,5.431,0,0,0,1.4-.152,2.08,2.08,0,0,0,.9-.475,1.842,1.842,0,0,0,.494-.836,4.466,4.466,0,0,0,.152-1.254V-1.083H76.8a2.958,2.958,0,0,1-1.121.969A3.955,3.955,0,0,1,73.91.228,3.933,3.933,0,0,1,70.728-.979a5.749,5.749,0,0,1-1.017-3.752A4.876,4.876,0,0,1,71-8.408a5.33,5.33,0,0,1,3.838-1.245,10.636,10.636,0,0,1,2,.161,10.226,10.226,0,0,1,1.51.409Zm-4.237-1.52a2.627,2.627,0,0,0,1.824-.6,3.336,3.336,0,0,0,.931-1.834v-4.5a5.542,5.542,0,0,0-2.337-.4,3.2,3.2,0,0,0-2.394.893,3.776,3.776,0,0,0-.874,2.736,6.793,6.793,0,0,0,.152,1.492,3.416,3.416,0,0,0,.484,1.168,2.282,2.282,0,0,0,.874.769A2.934,2.934,0,0,0,74.119-1.045Zm14-1.52a1.081,1.081,0,0,0-.475-.94,3.9,3.9,0,0,0-1.178-.532q-.7-.2-1.529-.371a8.824,8.824,0,0,1-1.53-.456,3.427,3.427,0,0,1-1.178-.769,1.858,1.858,0,0,1-.475-1.359,2.324,2.324,0,0,1,.313-1.235,2.634,2.634,0,0,1,.826-.845,3.778,3.778,0,0,1,1.2-.494,6.182,6.182,0,0,1,1.425-.162,7.015,7.015,0,0,1,2.289.333,7.494,7.494,0,0,1,1.53.694l-.608,1.2q-.627-.342-1.358-.656a4.672,4.672,0,0,0-1.834-.313,4.024,4.024,0,0,0-.826.085,2.921,2.921,0,0,0-.741.257,1.477,1.477,0,0,0-.532.446,1.119,1.119,0,0,0-.2.675.832.832,0,0,0,.475.76,4.93,4.93,0,0,0,1.178.446q.7.18,1.529.342A7.435,7.435,0,0,1,87.951-5a3.442,3.442,0,0,1,1.178.817A1.961,1.961,0,0,1,89.6-2.793,2.69,2.69,0,0,1,88.569-.627a4.8,4.8,0,0,1-3.106.855A6.687,6.687,0,0,1,84.227.114a7.49,7.49,0,0,1-1.14-.3,6.859,6.859,0,0,1-.969-.427A4.074,4.074,0,0,1,81.4-1.1l.76-1.235a3.442,3.442,0,0,0,.608.466,5.739,5.739,0,0,0,.836.428,5.7,5.7,0,0,0,.979.3,4.933,4.933,0,0,0,1.054.114,5.1,5.1,0,0,0,.959-.086,2.816,2.816,0,0,0,.789-.266,1.466,1.466,0,0,0,.541-.475A1.24,1.24,0,0,0,88.122-2.565ZM92.454,0V-1.273h2.565V-8.227H92.454V-9.5h3.553l.3,1.235h.1A6.848,6.848,0,0,1,97.85-9.272a4.044,4.044,0,0,1,1.9-.418,1.913,1.913,0,0,1,1.035.247,1.637,1.637,0,0,1,.608.722,3.761,3.761,0,0,1,.295,1.149,13.782,13.782,0,0,1,.076,1.53l-1.33.019a4.961,4.961,0,0,0-.238-1.786.863.863,0,0,0-.864-.57,3.125,3.125,0,0,0-1.064.171,3.481,3.481,0,0,0-.826.418,4.523,4.523,0,0,0-.6.494,2.947,2.947,0,0,0-.361.418v5.6h3.648V0ZM104.6,0V-1.273H107.9V-8.227H104.6V-9.5h4.826v8.227h3.23V0Zm2.793-12.2a1.258,1.258,0,0,1,.342-.884,1.137,1.137,0,0,1,.874-.37,1.251,1.251,0,0,1,.922.37,1.206,1.206,0,0,1,.37.884,1.094,1.094,0,0,1-.37.836,1.307,1.307,0,0,1-.922.342,1.184,1.184,0,0,1-.874-.342A1.137,1.137,0,0,1,107.388-12.2Zm14.934,9.633a1.081,1.081,0,0,0-.475-.94,3.9,3.9,0,0,0-1.178-.532q-.7-.2-1.529-.371a8.824,8.824,0,0,1-1.53-.456,3.427,3.427,0,0,1-1.178-.769,1.858,1.858,0,0,1-.475-1.359,2.324,2.324,0,0,1,.313-1.235,2.634,2.634,0,0,1,.826-.845,3.778,3.778,0,0,1,1.2-.494,6.182,6.182,0,0,1,1.425-.162,7.015,7.015,0,0,1,2.289.333,7.494,7.494,0,0,1,1.53.694l-.608,1.2q-.627-.342-1.358-.656a4.672,4.672,0,0,0-1.834-.313,4.024,4.024,0,0,0-.826.085,2.921,2.921,0,0,0-.741.257,1.477,1.477,0,0,0-.532.446,1.119,1.119,0,0,0-.2.675.832.832,0,0,0,.475.76,4.93,4.93,0,0,0,1.178.446q.7.18,1.529.342a7.435,7.435,0,0,1,1.53.465,3.442,3.442,0,0,1,1.178.817,1.961,1.961,0,0,1,.475,1.387,2.69,2.69,0,0,1-1.035,2.166,4.8,4.8,0,0,1-3.106.855,6.687,6.687,0,0,1-1.235-.114,7.49,7.49,0,0,1-1.14-.3,6.859,6.859,0,0,1-.969-.427A4.074,4.074,0,0,1,115.6-1.1l.76-1.235a3.442,3.442,0,0,0,.608.466,5.739,5.739,0,0,0,.836.428,5.7,5.7,0,0,0,.979.3,4.933,4.933,0,0,0,1.054.114,5.1,5.1,0,0,0,.959-.086,2.816,2.816,0,0,0,.789-.266,1.466,1.466,0,0,0,.541-.475A1.24,1.24,0,0,0,122.322-2.565ZM127.4,0V-1.273H130.7V-8.227H127.4V-9.5h4.826v8.227h3.23V0Zm2.793-12.2a1.258,1.258,0,0,1,.342-.884,1.137,1.137,0,0,1,.874-.37,1.251,1.251,0,0,1,.921.37,1.206,1.206,0,0,1,.37.884,1.094,1.094,0,0,1-.37.836,1.307,1.307,0,0,1-.921.342,1.184,1.184,0,0,1-.874-.342A1.137,1.137,0,0,1,130.188-12.2Zm14.953,4.161a7.506,7.506,0,0,0-.941-.257,4.9,4.9,0,0,0-1-.1,3.876,3.876,0,0,0-2.774.874,3.7,3.7,0,0,0-.912,2.774,3.939,3.939,0,0,0,.266,1.492,3.051,3.051,0,0,0,.76,1.111,3.416,3.416,0,0,0,1.188.7,4.531,4.531,0,0,0,1.53.247A5.1,5.1,0,0,0,145-1.5a4.418,4.418,0,0,0,1.415-.8l.665,1.1a5.379,5.379,0,0,1-.665.475,6.565,6.565,0,0,1-.921.465,6.39,6.39,0,0,1-1.159.352,6.734,6.734,0,0,1-1.377.133,6.2,6.2,0,0,1-2.176-.352,4.132,4.132,0,0,1-1.568-1.007,4.31,4.31,0,0,1-.95-1.577,6.142,6.142,0,0,1-.323-2.043,6.307,6.307,0,0,1,.333-2.128,4.129,4.129,0,0,1,.96-1.558,4.179,4.179,0,0,1,1.52-.96,5.682,5.682,0,0,1,2-.333,8.728,8.728,0,0,1,2.289.247,8.458,8.458,0,0,1,1.492.551l-.019.057v2.641h-1.368Zm4.142,3.287a5.261,5.261,0,0,1,1.2-3.639,4.348,4.348,0,0,1,3.42-1.34,4.989,4.989,0,0,1,2.062.39A4.046,4.046,0,0,1,157.4-8.284a4.3,4.3,0,0,1,.846,1.577,6.735,6.735,0,0,1,.275,1.957,6.558,6.558,0,0,1-.3,2.062,4.282,4.282,0,0,1-.893,1.567,3.946,3.946,0,0,1-1.453,1A5.184,5.184,0,0,1,153.9.228a5.005,5.005,0,0,1-2.052-.39A4.027,4.027,0,0,1,150.4-1.216a4.3,4.3,0,0,1-.845-1.577A6.735,6.735,0,0,1,149.283-4.75Zm1.577,0a5.618,5.618,0,0,0,.161,1.33,3.642,3.642,0,0,0,.522,1.2,2.716,2.716,0,0,0,.941.855,2.87,2.87,0,0,0,1.415.323,2.785,2.785,0,0,0,2.29-.941,4.281,4.281,0,0,0,.77-2.764,5.579,5.579,0,0,0-.161-1.339,3.539,3.539,0,0,0-.532-1.187,2.8,2.8,0,0,0-.95-.855,2.87,2.87,0,0,0-1.415-.323,2.77,2.77,0,0,0-2.28.931A4.313,4.313,0,0,0,150.86-4.75Z" transform="translate(-802 914)" fill="#fff"/>
    <path id="Path_12" data-name="Path 12" d="M-8.992-5.616a9.594,9.594,0,0,1,.3-2.552,5.27,5.27,0,0,1,.856-1.816,3.552,3.552,0,0,1,1.32-1.08,3.984,3.984,0,0,1,1.712-.36,3.683,3.683,0,0,1,3.1,1.416A7.2,7.2,0,0,1-.608-5.616a9.663,9.663,0,0,1-.3,2.568,5.361,5.361,0,0,1-.856,1.824A3.507,3.507,0,0,1-3.1-.136a4.038,4.038,0,0,1-1.72.36,3.582,3.582,0,0,1-3.1-1.5A7.408,7.408,0,0,1-8.992-5.616Zm6.336,0q0-.256-.008-.488t-.024-.456l-3.92,3.568A1.838,1.838,0,0,0-4.8-1.536a1.744,1.744,0,0,0,1.584-.976A6.505,6.505,0,0,0-2.656-5.616Zm-4.288,0q0,.24.008.456t.024.44l3.9-3.568A1.8,1.8,0,0,0-4.816-9.664a1.725,1.725,0,0,0-1.576.984A6.5,6.5,0,0,0-6.944-5.616Zm7.2-3.056a2.929,2.929,0,0,1,.616-2.08,2.275,2.275,0,0,1,1.72-.64,2.32,2.32,0,0,1,1.7.608,2.913,2.913,0,0,1,.616,2.112A2.913,2.913,0,0,1,4.3-6.56a2.32,2.32,0,0,1-1.7.608A2.343,2.343,0,0,1,.872-6.56,2.913,2.913,0,0,1,.256-8.672Zm1.552,0q0,1.376.784,1.376a.646.646,0,0,0,.568-.3,2.065,2.065,0,0,0,.2-1.08,2.07,2.07,0,0,0-.2-1.072.641.641,0,0,0-.568-.3.66.66,0,0,0-.576.3A2,2,0,0,0,1.808-8.672ZM8.32-11.344l.928.848L1.136.224.24-.688ZM4.688-2.72A2.929,2.929,0,0,1,5.3-4.8a2.275,2.275,0,0,1,1.72-.64,2.32,2.32,0,0,1,1.7.608A2.913,2.913,0,0,1,9.344-2.72,2.913,2.913,0,0,1,8.728-.608,2.32,2.32,0,0,1,7.024,0,2.343,2.343,0,0,1,5.3-.608,2.913,2.913,0,0,1,4.688-2.72Zm1.552,0q0,1.376.784,1.376a.646.646,0,0,0,.568-.3,2.065,2.065,0,0,0,.2-1.08,2.07,2.07,0,0,0-.2-1.072.641.641,0,0,0-.568-.3.66.66,0,0,0-.576.3A2,2,0,0,0,6.24-2.72Z" transform="translate(-912 959)" fill="#fff"/>
    <path id="Path_11" data-name="Path 11" d="M-6.032,0h-7.136V-1.552q.192-.16.48-.424t.648-.6q.36-.336.76-.736t.784-.832q.544-.608.952-1.1a7.859,7.859,0,0,0,.672-.936,3.848,3.848,0,0,0,.392-.864,3,3,0,0,0,.128-.872A1.443,1.443,0,0,0-8.5-8.544a1.7,1.7,0,0,0-.4-.536,1.912,1.912,0,0,0-.616-.368,2.224,2.224,0,0,0-.792-.136,2.98,2.98,0,0,0-1.048.176,3.57,3.57,0,0,0-.984.592l-.832-1.472a7.041,7.041,0,0,1,1.5-.808,5.1,5.1,0,0,1,1.9-.328,4.516,4.516,0,0,1,1.32.192,3.467,3.467,0,0,1,1.12.568,2.757,2.757,0,0,1,.776.936,2.8,2.8,0,0,1,.288,1.3,4.855,4.855,0,0,1-.088.952,4.635,4.635,0,0,1-.272.88,5.978,5.978,0,0,1-.48.9q-.3.464-.712,1.008-.32.416-.7.84t-.744.808q-.368.384-.728.72t-.648.56h4.608Zm5.024-1.616a3.542,3.542,0,0,0,.976-.128,2.433,2.433,0,0,0,.776-.368A1.7,1.7,0,0,0,1.256-2.7a1.7,1.7,0,0,0,.184-.8,1.616,1.616,0,0,0-.7-1.384,3.556,3.556,0,0,0-2.088-.5q-.176,0-.408.008t-.44.024q-.24.016-.5.016V-11.2H3.1v1.92h-4v2.192A2.062,2.062,0,0,0-.64-7.1q.112,0,.216-.008T-.24-7.12a4.629,4.629,0,0,1,1.488.232,3.365,3.365,0,0,1,1.2.7A3.154,3.154,0,0,1,3.24-5.064,3.731,3.731,0,0,1,3.52-3.6a3.693,3.693,0,0,1-.352,1.656,3.439,3.439,0,0,1-.96,1.192A4.3,4.3,0,0,1,.8-.024,5.752,5.752,0,0,1-.912.224,4.256,4.256,0,0,1-1.664.152q-.4-.072-.784-.176A6.979,6.979,0,0,1-3.16-.256q-.328-.128-.552-.24L-3.04-2.16a4.777,4.777,0,0,0,.84.352A3.7,3.7,0,0,0-1.008-1.616ZM5.056-8.672a2.929,2.929,0,0,1,.616-2.08,2.275,2.275,0,0,1,1.72-.64,2.32,2.32,0,0,1,1.7.608,2.913,2.913,0,0,1,.616,2.112A2.913,2.913,0,0,1,9.1-6.56a2.32,2.32,0,0,1-1.7.608,2.343,2.343,0,0,1-1.72-.608A2.913,2.913,0,0,1,5.056-8.672Zm1.552,0q0,1.376.784,1.376a.646.646,0,0,0,.568-.3,2.065,2.065,0,0,0,.2-1.08,2.07,2.07,0,0,0-.2-1.072.641.641,0,0,0-.568-.3.66.66,0,0,0-.576.3A2,2,0,0,0,6.608-8.672Zm6.512-2.672.928.848L5.936.224l-.9-.912ZM9.488-2.72A2.929,2.929,0,0,1,10.1-4.8a2.275,2.275,0,0,1,1.72-.64,2.32,2.32,0,0,1,1.7.608,2.913,2.913,0,0,1,.616,2.112,2.913,2.913,0,0,1-.616,2.112,2.32,2.32,0,0,1-1.7.608A2.343,2.343,0,0,1,10.1-.608,2.913,2.913,0,0,1,9.488-2.72Zm1.552,0q0,1.376.784,1.376a.646.646,0,0,0,.568-.3,2.065,2.065,0,0,0,.2-1.08,2.07,2.07,0,0,0-.2-1.072.641.641,0,0,0-.568-.3.66.66,0,0,0-.576.3A2,2,0,0,0,11.04-2.72Z" transform="translate(-822 959)" fill="#fff"/>
    <path id="Path_10" data-name="Path 10" d="M-10.608-1.616a3.542,3.542,0,0,0,.976-.128,2.433,2.433,0,0,0,.776-.368A1.7,1.7,0,0,0-8.344-2.7a1.7,1.7,0,0,0,.184-.8,1.616,1.616,0,0,0-.7-1.384,3.556,3.556,0,0,0-2.088-.5q-.176,0-.408.008t-.44.024q-.24.016-.5.016V-11.2H-6.5v1.92h-4v2.192A2.062,2.062,0,0,0-10.24-7.1q.112,0,.216-.008t.184-.008a4.629,4.629,0,0,1,1.488.232,3.365,3.365,0,0,1,1.2.7A3.154,3.154,0,0,1-6.36-5.064,3.731,3.731,0,0,1-6.08-3.6a3.693,3.693,0,0,1-.352,1.656,3.439,3.439,0,0,1-.96,1.192A4.3,4.3,0,0,1-8.8-.024a5.752,5.752,0,0,1-1.712.248,4.256,4.256,0,0,1-.752-.072q-.4-.072-.784-.176a6.979,6.979,0,0,1-.712-.232q-.328-.128-.552-.24l.672-1.664a4.777,4.777,0,0,0,.84.352A3.7,3.7,0,0,0-10.608-1.616Zm6.416-4a9.594,9.594,0,0,1,.3-2.552,5.27,5.27,0,0,1,.856-1.816,3.552,3.552,0,0,1,1.32-1.08A3.984,3.984,0,0,1,0-11.424a3.683,3.683,0,0,1,3.1,1.416A7.2,7.2,0,0,1,4.192-5.616a9.663,9.663,0,0,1-.3,2.568,5.361,5.361,0,0,1-.856,1.824A3.507,3.507,0,0,1,1.7-.136a4.038,4.038,0,0,1-1.72.36,3.582,3.582,0,0,1-3.1-1.5A7.408,7.408,0,0,1-4.192-5.616Zm6.336,0q0-.256-.008-.488T2.112-6.56l-3.92,3.568A1.838,1.838,0,0,0,0-1.536a1.744,1.744,0,0,0,1.584-.976A6.505,6.505,0,0,0,2.144-5.616Zm-4.288,0q0,.24.008.456t.024.44l3.9-3.568A1.8,1.8,0,0,0-.016-9.664a1.725,1.725,0,0,0-1.576.984A6.5,6.5,0,0,0-2.144-5.616Zm7.2-3.056a2.929,2.929,0,0,1,.616-2.08,2.275,2.275,0,0,1,1.72-.64,2.32,2.32,0,0,1,1.7.608,2.913,2.913,0,0,1,.616,2.112A2.913,2.913,0,0,1,9.1-6.56a2.32,2.32,0,0,1-1.7.608,2.343,2.343,0,0,1-1.72-.608A2.913,2.913,0,0,1,5.056-8.672Zm1.552,0q0,1.376.784,1.376a.646.646,0,0,0,.568-.3,2.065,2.065,0,0,0,.2-1.08,2.07,2.07,0,0,0-.2-1.072.641.641,0,0,0-.568-.3.66.66,0,0,0-.576.3A2,2,0,0,0,6.608-8.672Zm6.512-2.672.928.848L5.936.224l-.9-.912ZM9.488-2.72A2.929,2.929,0,0,1,10.1-4.8a2.275,2.275,0,0,1,1.72-.64,2.32,2.32,0,0,1,1.7.608,2.913,2.913,0,0,1,.616,2.112,2.913,2.913,0,0,1-.616,2.112,2.32,2.32,0,0,1-1.7.608A2.343,2.343,0,0,1,10.1-.608,2.913,2.913,0,0,1,9.488-2.72Zm1.552,0q0,1.376.784,1.376a.646.646,0,0,0,.568-.3,2.065,2.065,0,0,0,.2-1.08,2.07,2.07,0,0,0-.2-1.072.641.641,0,0,0-.568-.3.66.66,0,0,0-.576.3A2,2,0,0,0,11.04-2.72Z" transform="translate(-722 959)" fill="#fff"/>
    <path id="Path_9" data-name="Path 9" d="M-12.768,0-8.16-9.312h-5.216V-11.2h7.3v1.568L-10.736,0Zm11.76-1.616a3.542,3.542,0,0,0,.976-.128,2.433,2.433,0,0,0,.776-.368A1.7,1.7,0,0,0,1.256-2.7a1.7,1.7,0,0,0,.184-.8,1.616,1.616,0,0,0-.7-1.384,3.556,3.556,0,0,0-2.088-.5q-.176,0-.408.008t-.44.024q-.24.016-.5.016V-11.2H3.1v1.92h-4v2.192A2.062,2.062,0,0,0-.64-7.1q.112,0,.216-.008T-.24-7.12a4.629,4.629,0,0,1,1.488.232,3.365,3.365,0,0,1,1.2.7A3.154,3.154,0,0,1,3.24-5.064,3.731,3.731,0,0,1,3.52-3.6a3.693,3.693,0,0,1-.352,1.656,3.439,3.439,0,0,1-.96,1.192A4.3,4.3,0,0,1,.8-.024,5.752,5.752,0,0,1-.912.224,4.256,4.256,0,0,1-1.664.152q-.4-.072-.784-.176A6.979,6.979,0,0,1-3.16-.256q-.328-.128-.552-.24L-3.04-2.16a4.777,4.777,0,0,0,.84.352A3.7,3.7,0,0,0-1.008-1.616ZM5.056-8.672a2.929,2.929,0,0,1,.616-2.08,2.275,2.275,0,0,1,1.72-.64,2.32,2.32,0,0,1,1.7.608,2.913,2.913,0,0,1,.616,2.112A2.913,2.913,0,0,1,9.1-6.56a2.32,2.32,0,0,1-1.7.608,2.343,2.343,0,0,1-1.72-.608A2.913,2.913,0,0,1,5.056-8.672Zm1.552,0q0,1.376.784,1.376a.646.646,0,0,0,.568-.3,2.065,2.065,0,0,0,.2-1.08,2.07,2.07,0,0,0-.2-1.072.641.641,0,0,0-.568-.3.66.66,0,0,0-.576.3A2,2,0,0,0,6.608-8.672Zm6.512-2.672.928.848L5.936.224l-.9-.912ZM9.488-2.72A2.929,2.929,0,0,1,10.1-4.8a2.275,2.275,0,0,1,1.72-.64,2.32,2.32,0,0,1,1.7.608,2.913,2.913,0,0,1,.616,2.112,2.913,2.913,0,0,1-.616,2.112,2.32,2.32,0,0,1-1.7.608A2.343,2.343,0,0,1,10.1-.608,2.913,2.913,0,0,1,9.488-2.72Zm1.552,0q0,1.376.784,1.376a.646.646,0,0,0,.568-.3,2.065,2.065,0,0,0,.2-1.08,2.07,2.07,0,0,0-.2-1.072.641.641,0,0,0-.568-.3.66.66,0,0,0-.576.3A2,2,0,0,0,11.04-2.72Z" transform="translate(-622 959)" fill="#fff"/>
    <path id="Path_8" data-name="Path 8" d="M-17.5-1.76h2.448V-8.752l-2.112,1.616-.96-1.28L-14.48-11.2h1.408v9.44h2.4V0H-17.5Zm8.512-3.856a9.594,9.594,0,0,1,.3-2.552,5.27,5.27,0,0,1,.856-1.816,3.552,3.552,0,0,1,1.32-1.08,3.984,3.984,0,0,1,1.712-.36,3.683,3.683,0,0,1,3.1,1.416A7.2,7.2,0,0,1-.608-5.616a9.663,9.663,0,0,1-.3,2.568,5.361,5.361,0,0,1-.856,1.824A3.507,3.507,0,0,1-3.1-.136a4.038,4.038,0,0,1-1.72.36,3.582,3.582,0,0,1-3.1-1.5A7.408,7.408,0,0,1-8.992-5.616Zm6.336,0q0-.256-.008-.488t-.024-.456l-3.92,3.568A1.838,1.838,0,0,0-4.8-1.536a1.744,1.744,0,0,0,1.584-.976A6.505,6.505,0,0,0-2.656-5.616Zm-4.288,0q0,.24.008.456t.024.44l3.9-3.568A1.8,1.8,0,0,0-4.816-9.664a1.725,1.725,0,0,0-1.576.984A6.5,6.5,0,0,0-6.944-5.616Zm7.552,0a9.594,9.594,0,0,1,.3-2.552,5.27,5.27,0,0,1,.856-1.816,3.552,3.552,0,0,1,1.32-1.08,3.984,3.984,0,0,1,1.712-.36,3.683,3.683,0,0,1,3.1,1.416A7.2,7.2,0,0,1,8.992-5.616a9.663,9.663,0,0,1-.3,2.568,5.361,5.361,0,0,1-.856,1.824A3.507,3.507,0,0,1,6.5-.136a4.038,4.038,0,0,1-1.72.36,3.582,3.582,0,0,1-3.1-1.5A7.408,7.408,0,0,1,.608-5.616Zm6.336,0q0-.256-.008-.488T6.912-6.56L2.992-2.992A1.838,1.838,0,0,0,4.8-1.536a1.744,1.744,0,0,0,1.584-.976A6.505,6.505,0,0,0,6.944-5.616Zm-4.288,0q0,.24.008.456t.024.44l3.9-3.568A1.8,1.8,0,0,0,4.784-9.664a1.725,1.725,0,0,0-1.576.984A6.5,6.5,0,0,0,2.656-5.616Zm7.2-3.056a2.929,2.929,0,0,1,.616-2.08,2.275,2.275,0,0,1,1.72-.64,2.32,2.32,0,0,1,1.7.608,2.913,2.913,0,0,1,.616,2.112A2.913,2.913,0,0,1,13.9-6.56a2.32,2.32,0,0,1-1.7.608,2.343,2.343,0,0,1-1.72-.608A2.913,2.913,0,0,1,9.856-8.672Zm1.552,0q0,1.376.784,1.376a.646.646,0,0,0,.568-.3,2.065,2.065,0,0,0,.2-1.08,2.07,2.07,0,0,0-.2-1.072.641.641,0,0,0-.568-.3.66.66,0,0,0-.576.3A2,2,0,0,0,11.408-8.672Zm6.512-2.672.928.848L10.736.224l-.9-.912ZM14.288-2.72A2.929,2.929,0,0,1,14.9-4.8a2.275,2.275,0,0,1,1.72-.64,2.32,2.32,0,0,1,1.7.608,2.913,2.913,0,0,1,.616,2.112,2.913,2.913,0,0,1-.616,2.112,2.32,2.32,0,0,1-1.7.608A2.343,2.343,0,0,1,14.9-.608,2.913,2.913,0,0,1,14.288-2.72Zm1.552,0q0,1.376.784,1.376a.646.646,0,0,0,.568-.3,2.065,2.065,0,0,0,.2-1.08,2.07,2.07,0,0,0-.2-1.072.641.641,0,0,0-.568-.3.66.66,0,0,0-.576.3A2,2,0,0,0,15.84-2.72Z" transform="translate(-541 959)" fill="#fff"/>
  </g>
</svg>
