<svg xmlns="http://www.w3.org/2000/svg" xmlns:xlink="http://www.w3.org/1999/xlink" width="440" height="200" viewBox="0 0 440 200">
  <defs>
    <linearGradient id="linear-gradient" x1="0.5" x2="0.5" y2="1" gradientUnits="objectBoundingBox">
      <stop offset="0" stop-color="#e61818"/>
      <stop offset="0.128" stop-color="#ed7700"/>
      <stop offset="0.249" stop-color="#ffde31"/>
      <stop offset="0.309" stop-color="#ded72d"/>
      <stop offset="0.415" stop-color="#17dd26"/>
      <stop offset="0.535" stop-color="#e0e01c"/>
      <stop offset="0.592" stop-color="#d9e117"/>
      <stop offset="0.825" stop-color="#df7b17"/>
      <stop offset="1" stop-color="#de1717"/>
    </linearGradient>
  </defs>
  <g id="Group_4" data-name="Group 4" transform="translate(981 -1145)">
    <rect id="Rectangle_13" data-name="Rectangle 13" width="200" height="440" transform="translate(-981 1345) rotate(-90)" fill="#1f1f1f"/>
    <g id="Group_3" data-name="Group 3" transform="translate(-44 293)">
      <path id="Path_3" data-name="Path 3" d="M0,0H49V400H0Z" transform="translate(-517 983) rotate(90)" fill="url(#linear-gradient)"/>
    </g>
    <path id="Path_12" data-name="Path 12" d="M-111.37-3.85h3.99v-16.8h-3.36v4.235h-3.85V-24.5h19.18v8.085h-3.85V-20.65h-3.325v16.8h3.955V0h-12.74Zm35.56,1.995a6.2,6.2,0,0,1-1.173.822,11.427,11.427,0,0,1-1.68.753A13,13,0,0,1-80.78.28a13.688,13.688,0,0,1-2.45.21,11.89,11.89,0,0,1-4.007-.63A8.039,8.039,0,0,1-90.23-1.977,8.046,8.046,0,0,1-92.1-4.883,10.8,10.8,0,0,1-92.75-8.75a10.289,10.289,0,0,1,.735-4.043A8.082,8.082,0,0,1-90-15.68a8.4,8.4,0,0,1,2.993-1.733,11.555,11.555,0,0,1,3.71-.577,11.447,11.447,0,0,1,2.748.35,7.493,7.493,0,0,1,2.607,1.207A6.468,6.468,0,0,1-76-14.14a7.8,7.8,0,0,1,.753,3.64,16.662,16.662,0,0,1-.35,3.255H-88.2a4.036,4.036,0,0,0,.472,1.89,3.742,3.742,0,0,0,1.155,1.26,5,5,0,0,0,1.645.717,8.28,8.28,0,0,0,1.978.227A10.237,10.237,0,0,0-79.5-3.64a7.28,7.28,0,0,0,2.188-1.19ZM-83.37-14.35a5.86,5.86,0,0,0-1.715.245,4.828,4.828,0,0,0-1.452.717,3.952,3.952,0,0,0-1.068,1.172,3.57,3.57,0,0,0-.49,1.575h8.61a3.742,3.742,0,0,0-.963-2.713A3.889,3.889,0,0,0-83.37-14.35ZM-65.065,0V-10.71a8.316,8.316,0,0,0-.14-1.7,3.265,3.265,0,0,0-.368-1.015,1.121,1.121,0,0,0-.56-.49,1.959,1.959,0,0,0-.683-.122,1.786,1.786,0,0,0-1.1.385,1.864,1.864,0,0,0-.682.98V0h-4.2V-17.5h3.325l.49,1.925h.105a4.29,4.29,0,0,1,1.54-1.663,4.329,4.329,0,0,1,2.38-.647,4.622,4.622,0,0,1,2.205.56,2.977,2.977,0,0,1,1.435,1.96,3.905,3.905,0,0,1,1.61-1.873,4.5,4.5,0,0,1,2.345-.647,5.134,5.134,0,0,1,1.7.262,2.99,2.99,0,0,1,1.313.927,4.555,4.555,0,0,1,.858,1.8,11.85,11.85,0,0,1,.3,2.922V0h-4.2V-11.2a3.6,3.6,0,0,0-.507-2.2,1.542,1.542,0,0,0-1.243-.63,1.938,1.938,0,0,0-1.085.3,1.567,1.567,0,0,0-.63.962V0ZM-52.5-17.5h5.95l.525,2.1h.14q1.82-2.59,5.88-2.59a8.329,8.329,0,0,1,2.958.507,5.758,5.758,0,0,1,2.31,1.593,7.478,7.478,0,0,1,1.488,2.73A13.1,13.1,0,0,1-32.725-9.2a12.855,12.855,0,0,1-.6,4.043A8.6,8.6,0,0,1-35.035-2.1a7.354,7.354,0,0,1-2.73,1.925A9.557,9.557,0,0,1-41.44.49,14.373,14.373,0,0,1-43.575.332a5.879,5.879,0,0,1-1.75-.507V7h-4.55V-13.65H-52.5Zm11.13,3.36a4.62,4.62,0,0,0-2.432.665,3.445,3.445,0,0,0-1.523,1.995V-4.2a3.743,3.743,0,0,0,1.417.612,7.833,7.833,0,0,0,1.873.227,4.9,4.9,0,0,0,1.82-.332,3.73,3.73,0,0,0,1.47-1.068,5.19,5.19,0,0,0,.98-1.855,9.1,9.1,0,0,0,.35-2.7,5.2,5.2,0,0,0-1.12-3.57A3.629,3.629,0,0,0-41.37-14.14ZM-12.81-1.855a6.2,6.2,0,0,1-1.172.822,11.427,11.427,0,0,1-1.68.753A13,13,0,0,1-17.78.28a13.688,13.688,0,0,1-2.45.21,11.89,11.89,0,0,1-4.007-.63A8.039,8.039,0,0,1-27.23-1.977,8.047,8.047,0,0,1-29.1-4.883,10.8,10.8,0,0,1-29.75-8.75a10.289,10.289,0,0,1,.735-4.043A8.082,8.082,0,0,1-27-15.68a8.4,8.4,0,0,1,2.993-1.733,11.555,11.555,0,0,1,3.71-.577,11.447,11.447,0,0,1,2.747.35,7.493,7.493,0,0,1,2.608,1.207A6.468,6.468,0,0,1-13-14.14a7.8,7.8,0,0,1,.752,3.64,16.662,16.662,0,0,1-.35,3.255H-25.2a4.036,4.036,0,0,0,.472,1.89,3.742,3.742,0,0,0,1.155,1.26,5,5,0,0,0,1.645.717,8.28,8.28,0,0,0,1.977.227A10.237,10.237,0,0,0-16.5-3.64a7.281,7.281,0,0,0,2.188-1.19ZM-20.37-14.35a5.86,5.86,0,0,0-1.715.245,4.828,4.828,0,0,0-1.453.717A3.952,3.952,0,0,0-24.6-12.215a3.57,3.57,0,0,0-.49,1.575h8.61a3.742,3.742,0,0,0-.962-2.713A3.889,3.889,0,0,0-20.37-14.35ZM-9.135-3.85H-4.8v-9.8h-4.34V-17.5H-1.26l.525,2.31H-.6a9.251,9.251,0,0,1,2.24-1.925,5.525,5.525,0,0,1,2.94-.77,3.974,3.974,0,0,1,3.307,1.54Q9.1-14.8,9.1-11.2H5a3.527,3.527,0,0,0-.367-1.838,1.287,1.287,0,0,0-1.173-.577,3.458,3.458,0,0,0-2.257.7,7.047,7.047,0,0,0-1.453,1.61V-3.85h7.6V0H-9.135ZM13.65-16.31A19.1,19.1,0,0,1,16.888-17.4a18.307,18.307,0,0,1,4.358-.455,9.62,9.62,0,0,1,3.1.438,5.177,5.177,0,0,1,2.065,1.243,4.722,4.722,0,0,1,1.138,1.925,8.433,8.433,0,0,1,.35,2.52q0,1.785-.123,3.045T27.65-6.44q0,.735.07,1.645.07.49.1.945H30.1V0H24.29l-.455-2.38H23.66A6.065,6.065,0,0,1,21.665-.507a6.7,6.7,0,0,1-3.5.787A5.957,5.957,0,0,1,14-1.12a4.772,4.772,0,0,1-1.54-3.71A5.538,5.538,0,0,1,13-7.368a4.535,4.535,0,0,1,1.575-1.75,7.505,7.505,0,0,1,2.485-1.015,14.536,14.536,0,0,1,3.237-.333q.63,0,1.33.07t1.715.14a3.561,3.561,0,0,0,.07-.7v-.665a2.231,2.231,0,0,0-.77-1.908A3.76,3.76,0,0,0,20.37-14.1a10.629,10.629,0,0,0-3.22.455,20.636,20.636,0,0,0-2.415.91ZM19.635-3.465a4.269,4.269,0,0,0,2.52-.612A4.138,4.138,0,0,0,23.38-5.39v-2.1q-.35-.07-1.05-.157a12.159,12.159,0,0,0-1.5-.088,7.327,7.327,0,0,0-1.33.122,4.453,4.453,0,0,0-1.19.385,2.33,2.33,0,0,0-.84.682A1.643,1.643,0,0,0,17.15-5.53a1.987,1.987,0,0,0,.578,1.523A2.74,2.74,0,0,0,19.635-3.465ZM35.56-13.65H32.1V-17.5H35.56v-3.99l4.55-1.295V-17.5h9.17v3.85H40.11v5.005a6.04,6.04,0,0,0,1.015,3.9A3.5,3.5,0,0,0,43.96-3.535a6.042,6.042,0,0,0,1.715-.227,6.475,6.475,0,0,0,1.382-.578,7.9,7.9,0,0,0,1.12-.77l.928-.77,2.1,3.15a6.73,6.73,0,0,1-1.488,1.278A12.541,12.541,0,0,1,47.792-.437,12.17,12.17,0,0,1,45.64.245,10.3,10.3,0,0,1,43.435.49q-3.92,0-5.9-2.188T35.56-8.645ZM64.05-17.5h6.51V-3.85h2.66V0H67.69l-.805-2.59h-.14A6.183,6.183,0,0,1,64.33-.385,7.353,7.353,0,0,1,60.76.49,8.009,8.009,0,0,1,58.327.14a4.378,4.378,0,0,1-1.872-1.155,5.366,5.366,0,0,1-1.19-2.17,11.855,11.855,0,0,1-.42-3.43V-13.65h-2V-17.5H59.4v9.94a5.369,5.369,0,0,0,.682,3.08,2.475,2.475,0,0,0,2.153.945,3.8,3.8,0,0,0,2.328-.77A4.151,4.151,0,0,0,66.01-6.2V-13.65H64.05Zm21,0h6.51V-3.85h2.66V0H88.69l-.805-2.59h-.14A6.183,6.183,0,0,1,85.33-.385,7.354,7.354,0,0,1,81.76.49,8.009,8.009,0,0,1,79.327.14a4.377,4.377,0,0,1-1.872-1.155,5.365,5.365,0,0,1-1.19-2.17,11.855,11.855,0,0,1-.42-3.43V-13.65h-2V-17.5h6.545v9.94a5.369,5.369,0,0,0,.683,3.08,2.475,2.475,0,0,0,2.152.945,3.8,3.8,0,0,0,2.328-.77A4.151,4.151,0,0,0,87.01-6.2V-13.65H85.05ZM95.865-3.85h4.34v-9.8h-4.34V-17.5h7.875l.525,2.31h.14a9.251,9.251,0,0,1,2.24-1.925,5.525,5.525,0,0,1,2.94-.77,3.974,3.974,0,0,1,3.308,1.54Q114.1-14.8,114.1-11.2H110a3.527,3.527,0,0,0-.368-1.838,1.287,1.287,0,0,0-1.173-.577,3.458,3.458,0,0,0-2.257.7,7.047,7.047,0,0,0-1.453,1.61V-3.85h7.6V0H95.865Z" transform="translate(-761 1198)" fill="#fff"/>
    <path id="Path_11" data-name="Path 11" d="M1.71-13.3H3.287V-1.406H8.664V-4.712H10.07V0H1.71ZM13.452-8.759A6.035,6.035,0,0,1,15.3-9.443a10.074,10.074,0,0,1,2.014-.209,3.6,3.6,0,0,1,1.587.3,2.57,2.57,0,0,1,.969.789,2.78,2.78,0,0,1,.475,1.1,6.331,6.331,0,0,1,.123,1.245q0,.722-.038,1.539T20.368-3.04a13.664,13.664,0,0,0,.114,1.805h1.273V0H19.228l-.171-1.425h-.095a4.85,4.85,0,0,1-.342.437,3.129,3.129,0,0,1-.6.523,3.867,3.867,0,0,1-.9.446,3.731,3.731,0,0,1-1.254.19,3.238,3.238,0,0,1-2.223-.722,2.5,2.5,0,0,1-.817-1.976,2.866,2.866,0,0,1,.427-1.615,2.7,2.7,0,0,1,1.226-.988,5.615,5.615,0,0,1,1.929-.4,12.952,12.952,0,0,1,2.537.152,6.736,6.736,0,0,0,.028-1.453,2,2,0,0,0-.3-.922A1.273,1.273,0,0,0,18-8.236a3.369,3.369,0,0,0-1.054-.143,5.572,5.572,0,0,0-1.634.238q-.779.237-1.387.484ZM16.245-1.1a2.792,2.792,0,0,0,.988-.171,3.012,3.012,0,0,0,.8-.437,2.9,2.9,0,0,0,.57-.579,2.8,2.8,0,0,0,.342-.6v-1.33a10.75,10.75,0,0,0-1.824-.171,5.107,5.107,0,0,0-1.444.181,2.014,2.014,0,0,0-.95.56,1.421,1.421,0,0,0-.342.988,1.563,1.563,0,0,0,.427,1.092A1.877,1.877,0,0,0,16.245-1.1Zm8.322-5.073q0-.171-.01-.447t-.028-.57q-.019-.295-.048-.58t-.066-.494H23.142V-9.5h2.546l.171,1.539h.095a3.212,3.212,0,0,1,.5-.636,3.949,3.949,0,0,1,.732-.57,3.876,3.876,0,0,1,.931-.409A3.793,3.793,0,0,1,29.2-9.728a5.725,5.725,0,0,1,1.549.19,2.359,2.359,0,0,1,1.121.674,3.128,3.128,0,0,1,.674,1.311,8.068,8.068,0,0,1,.228,2.1V0H31.293V-5.168a4.439,4.439,0,0,0-.513-2.375,2.042,2.042,0,0,0-1.862-.8,2.413,2.413,0,0,0-.959.2,3.312,3.312,0,0,0-.846.522,3.6,3.6,0,0,0-.665.751,3.152,3.152,0,0,0-.418.9V0H24.567ZM40.831-13.3h3.078V-3.249q0,.171.019.428t.048.541q.029.285.066.561t.076.485h1.273V0H42.864l-.19-1.463H42.6A3.355,3.355,0,0,1,41.354-.257a3.705,3.705,0,0,1-1.91.485A3.908,3.908,0,0,1,36.281-.979a5.749,5.749,0,0,1-1.017-3.752,6.067,6.067,0,0,1,.342-2.119,4.089,4.089,0,0,1,.979-1.539,4.231,4.231,0,0,1,1.53-.94,5.833,5.833,0,0,1,1.995-.323q.4,0,.713.019t.579.057a3.926,3.926,0,0,1,.5.1q.238.067.523.142v-2.7h-1.6ZM39.691-1.045a2.627,2.627,0,0,0,1.824-.6,3.209,3.209,0,0,0,.912-1.8V-7.847a2.943,2.943,0,0,0-.941-.418A5.771,5.771,0,0,0,40.109-8.4a3.215,3.215,0,0,0-2.394.883,3.83,3.83,0,0,0-.874,2.784,7.028,7.028,0,0,0,.143,1.454,3.286,3.286,0,0,0,.475,1.168,2.34,2.34,0,0,0,.883.779A2.91,2.91,0,0,0,39.691-1.045ZM47.595,0V-1.273H50.9V-8.227H47.595V-9.5h4.826v8.227h3.23V0Zm2.793-12.2a1.258,1.258,0,0,1,.342-.884,1.137,1.137,0,0,1,.874-.37,1.251,1.251,0,0,1,.921.37,1.206,1.206,0,0,1,.371.884,1.094,1.094,0,0,1-.371.836,1.307,1.307,0,0,1-.921.342,1.184,1.184,0,0,1-.874-.342A1.137,1.137,0,0,1,50.388-12.2Zm8.379,6.023q0-.171-.009-.447t-.028-.57q-.019-.295-.048-.58t-.066-.494H57.342V-9.5h2.546l.171,1.539h.1a3.212,3.212,0,0,1,.5-.636,3.949,3.949,0,0,1,.731-.57,3.876,3.876,0,0,1,.931-.409A3.793,3.793,0,0,1,63.4-9.728a5.725,5.725,0,0,1,1.549.19,2.359,2.359,0,0,1,1.121.674,3.128,3.128,0,0,1,.674,1.311,8.068,8.068,0,0,1,.228,2.1V0H65.493V-5.168a4.439,4.439,0,0,0-.513-2.375,2.042,2.042,0,0,0-1.862-.8,2.413,2.413,0,0,0-.959.2,3.312,3.312,0,0,0-.846.522,3.6,3.6,0,0,0-.665.751,3.152,3.152,0,0,0-.418.9V0H58.767ZM78.356.475a3.422,3.422,0,0,1-.342,1.568,3.079,3.079,0,0,1-.94,1.111,4.243,4.243,0,0,1-1.4.656,6.528,6.528,0,0,1-1.729.218A7.482,7.482,0,0,1,71.991,3.8a5.822,5.822,0,0,1-1.444-.589l.722-1.349a2.18,2.18,0,0,0,.446.294,4.706,4.706,0,0,0,.637.266,5.462,5.462,0,0,0,.769.2,4.408,4.408,0,0,0,.808.076,5.431,5.431,0,0,0,1.4-.152,2.08,2.08,0,0,0,.9-.475,1.842,1.842,0,0,0,.494-.836,4.466,4.466,0,0,0,.152-1.254V-1.083H76.8a2.958,2.958,0,0,1-1.121.969A3.955,3.955,0,0,1,73.91.228,3.933,3.933,0,0,1,70.728-.979a5.749,5.749,0,0,1-1.017-3.752A4.876,4.876,0,0,1,71-8.408a5.33,5.33,0,0,1,3.838-1.245,10.636,10.636,0,0,1,2,.161,10.226,10.226,0,0,1,1.51.409Zm-4.237-1.52a2.627,2.627,0,0,0,1.824-.6,3.336,3.336,0,0,0,.931-1.834v-4.5a5.542,5.542,0,0,0-2.337-.4,3.2,3.2,0,0,0-2.394.893,3.776,3.776,0,0,0-.874,2.736,6.793,6.793,0,0,0,.152,1.492,3.416,3.416,0,0,0,.484,1.168,2.282,2.282,0,0,0,.874.769A2.934,2.934,0,0,0,74.119-1.045Zm14-1.52a1.081,1.081,0,0,0-.475-.94,3.9,3.9,0,0,0-1.178-.532q-.7-.2-1.529-.371a8.824,8.824,0,0,1-1.53-.456,3.427,3.427,0,0,1-1.178-.769,1.858,1.858,0,0,1-.475-1.359,2.324,2.324,0,0,1,.313-1.235,2.634,2.634,0,0,1,.826-.845,3.778,3.778,0,0,1,1.2-.494,6.182,6.182,0,0,1,1.425-.162,7.015,7.015,0,0,1,2.289.333,7.494,7.494,0,0,1,1.53.694l-.608,1.2q-.627-.342-1.358-.656a4.672,4.672,0,0,0-1.834-.313,4.024,4.024,0,0,0-.826.085,2.921,2.921,0,0,0-.741.257,1.477,1.477,0,0,0-.532.446,1.119,1.119,0,0,0-.2.675.832.832,0,0,0,.475.76,4.93,4.93,0,0,0,1.178.446q.7.18,1.529.342A7.435,7.435,0,0,1,87.951-5a3.442,3.442,0,0,1,1.178.817A1.961,1.961,0,0,1,89.6-2.793,2.69,2.69,0,0,1,88.569-.627a4.8,4.8,0,0,1-3.106.855A6.687,6.687,0,0,1,84.227.114a7.49,7.49,0,0,1-1.14-.3,6.859,6.859,0,0,1-.969-.427A4.074,4.074,0,0,1,81.4-1.1l.76-1.235a3.442,3.442,0,0,0,.608.466,5.739,5.739,0,0,0,.836.428,5.7,5.7,0,0,0,.979.3,4.933,4.933,0,0,0,1.054.114,5.1,5.1,0,0,0,.959-.086,2.816,2.816,0,0,0,.789-.266,1.466,1.466,0,0,0,.541-.475A1.24,1.24,0,0,0,88.122-2.565ZM92.454,0V-1.273h2.565V-8.227H92.454V-9.5h3.553l.3,1.235h.1A6.848,6.848,0,0,1,97.85-9.272a4.044,4.044,0,0,1,1.9-.418,1.913,1.913,0,0,1,1.035.247,1.637,1.637,0,0,1,.608.722,3.761,3.761,0,0,1,.295,1.149,13.782,13.782,0,0,1,.076,1.53l-1.33.019a4.961,4.961,0,0,0-.238-1.786.863.863,0,0,0-.864-.57,3.125,3.125,0,0,0-1.064.171,3.481,3.481,0,0,0-.826.418,4.523,4.523,0,0,0-.6.494,2.947,2.947,0,0,0-.361.418v5.6h3.648V0ZM104.6,0V-1.273H107.9V-8.227H104.6V-9.5h4.826v8.227h3.23V0Zm2.793-12.2a1.258,1.258,0,0,1,.342-.884,1.137,1.137,0,0,1,.874-.37,1.251,1.251,0,0,1,.922.37,1.206,1.206,0,0,1,.37.884,1.094,1.094,0,0,1-.37.836,1.307,1.307,0,0,1-.922.342,1.184,1.184,0,0,1-.874-.342A1.137,1.137,0,0,1,107.388-12.2Zm14.934,9.633a1.081,1.081,0,0,0-.475-.94,3.9,3.9,0,0,0-1.178-.532q-.7-.2-1.529-.371a8.824,8.824,0,0,1-1.53-.456,3.427,3.427,0,0,1-1.178-.769,1.858,1.858,0,0,1-.475-1.359,2.324,2.324,0,0,1,.313-1.235,2.634,2.634,0,0,1,.826-.845,3.778,3.778,0,0,1,1.2-.494,6.182,6.182,0,0,1,1.425-.162,7.015,7.015,0,0,1,2.289.333,7.494,7.494,0,0,1,1.53.694l-.608,1.2q-.627-.342-1.358-.656a4.672,4.672,0,0,0-1.834-.313,4.024,4.024,0,0,0-.826.085,2.921,2.921,0,0,0-.741.257,1.477,1.477,0,0,0-.532.446,1.119,1.119,0,0,0-.2.675.832.832,0,0,0,.475.76,4.93,4.93,0,0,0,1.178.446q.7.18,1.529.342a7.435,7.435,0,0,1,1.53.465,3.442,3.442,0,0,1,1.178.817,1.961,1.961,0,0,1,.475,1.387,2.69,2.69,0,0,1-1.035,2.166,4.8,4.8,0,0,1-3.106.855,6.687,6.687,0,0,1-1.235-.114,7.49,7.49,0,0,1-1.14-.3,6.859,6.859,0,0,1-.969-.427A4.074,4.074,0,0,1,115.6-1.1l.76-1.235a3.442,3.442,0,0,0,.608.466,5.739,5.739,0,0,0,.836.428,5.7,5.7,0,0,0,.979.3,4.933,4.933,0,0,0,1.054.114,5.1,5.1,0,0,0,.959-.086,2.816,2.816,0,0,0,.789-.266,1.466,1.466,0,0,0,.541-.475A1.24,1.24,0,0,0,122.322-2.565ZM127.4,0V-1.273H130.7V-8.227H127.4V-9.5h4.826v8.227h3.23V0Zm2.793-12.2a1.258,1.258,0,0,1,.342-.884,1.137,1.137,0,0,1,.874-.37,1.251,1.251,0,0,1,.921.37,1.206,1.206,0,0,1,.37.884,1.094,1.094,0,0,1-.37.836,1.307,1.307,0,0,1-.921.342,1.184,1.184,0,0,1-.874-.342A1.137,1.137,0,0,1,130.188-12.2Zm14.953,4.161a7.506,7.506,0,0,0-.941-.257,4.9,4.9,0,0,0-1-.1,3.876,3.876,0,0,0-2.774.874,3.7,3.7,0,0,0-.912,2.774,3.939,3.939,0,0,0,.266,1.492,3.051,3.051,0,0,0,.76,1.111,3.416,3.416,0,0,0,1.188.7,4.531,4.531,0,0,0,1.53.247A5.1,5.1,0,0,0,145-1.5a4.418,4.418,0,0,0,1.415-.8l.665,1.1a5.379,5.379,0,0,1-.665.475,6.565,6.565,0,0,1-.921.465,6.39,6.39,0,0,1-1.159.352,6.734,6.734,0,0,1-1.377.133,6.2,6.2,0,0,1-2.176-.352,4.132,4.132,0,0,1-1.568-1.007,4.31,4.31,0,0,1-.95-1.577,6.142,6.142,0,0,1-.323-2.043,6.307,6.307,0,0,1,.333-2.128,4.129,4.129,0,0,1,.96-1.558,4.179,4.179,0,0,1,1.52-.96,5.682,5.682,0,0,1,2-.333,8.728,8.728,0,0,1,2.289.247,8.458,8.458,0,0,1,1.492.551l-.019.057v2.641h-1.368Zm4.142,3.287a5.261,5.261,0,0,1,1.2-3.639,4.348,4.348,0,0,1,3.42-1.34,4.989,4.989,0,0,1,2.062.39A4.046,4.046,0,0,1,157.4-8.284a4.3,4.3,0,0,1,.846,1.577,6.735,6.735,0,0,1,.275,1.957,6.558,6.558,0,0,1-.3,2.062,4.282,4.282,0,0,1-.893,1.567,3.946,3.946,0,0,1-1.453,1A5.184,5.184,0,0,1,153.9.228a5.005,5.005,0,0,1-2.052-.39A4.027,4.027,0,0,1,150.4-1.216a4.3,4.3,0,0,1-.845-1.577A6.735,6.735,0,0,1,149.283-4.75Zm1.577,0a5.618,5.618,0,0,0,.161,1.33,3.642,3.642,0,0,0,.522,1.2,2.716,2.716,0,0,0,.941.855,2.87,2.87,0,0,0,1.415.323,2.785,2.785,0,0,0,2.29-.941,4.281,4.281,0,0,0,.77-2.764,5.579,5.579,0,0,0-.161-1.339,3.539,3.539,0,0,0-.532-1.187,2.8,2.8,0,0,0-.95-.855,2.87,2.87,0,0,0-1.415-.323,2.77,2.77,0,0,0-2.28.931A4.313,4.313,0,0,0,150.86-4.75Z" transform="translate(-841 1223)" fill="#fff"/>
    <path id="Path_8" data-name="Path 8" d="M-8.62-3.51a6,6,0,0,1,.19-1.595A3.294,3.294,0,0,1-7.895-6.24a2.22,2.22,0,0,1,.825-.675A2.49,2.49,0,0,1-6-7.14a2.3,2.3,0,0,1,1.94.885A4.5,4.5,0,0,1-3.38-3.51a6.039,6.039,0,0,1-.19,1.605,3.35,3.35,0,0,1-.535,1.14,2.192,2.192,0,0,1-.83.68A2.524,2.524,0,0,1-6.01.14,2.239,2.239,0,0,1-7.95-.795,4.63,4.63,0,0,1-8.62-3.51Zm3.96,0q0-.16,0-.3T-4.68-4.1L-7.13-1.87A1.149,1.149,0,0,0-6-.96a1.09,1.09,0,0,0,.99-.61A4.066,4.066,0,0,0-4.66-3.51Zm-2.68,0q0,.15.005.285t.015.275l2.44-2.23a1.128,1.128,0,0,0-1.13-.86,1.078,1.078,0,0,0-.985.615A4.065,4.065,0,0,0-7.34-3.51Zm5.68-1.97a1.7,1.7,0,0,1,.13-.675,1.605,1.605,0,0,1,.355-.525,1.6,1.6,0,0,1,.52-.34A1.669,1.669,0,0,1-.02-7.14a1.887,1.887,0,0,1,.645.11A1.539,1.539,0,0,1,1.16-6.7a1.5,1.5,0,0,1,.36.525,1.8,1.8,0,0,1,.13.7,1.758,1.758,0,0,1-.13.695,1.464,1.464,0,0,1-.36.515,1.578,1.578,0,0,1-.535.32,1.887,1.887,0,0,1-.645.11,1.8,1.8,0,0,1-.635-.11,1.545,1.545,0,0,1-.52-.32,1.5,1.5,0,0,1-.355-.515A1.758,1.758,0,0,1-1.66-5.48Zm1,0a.672.672,0,0,0,.19.5.635.635,0,0,0,.46.185.67.67,0,0,0,.47-.185.654.654,0,0,0,.2-.5.687.687,0,0,0-.2-.515.651.651,0,0,0-.47-.2.619.619,0,0,0-.46.2A.706.706,0,0,0-.66-5.48Zm8.1,3.13h1.1v2a2.457,2.457,0,0,1-.815.36A3.979,3.979,0,0,1,6.71.14a4,4,0,0,1-1.255-.2A2.69,2.69,0,0,1,4.41-.685a3.109,3.109,0,0,1-.72-1.13A4.663,4.663,0,0,1,3.42-3.5a4.3,4.3,0,0,1,.3-1.725,3.167,3.167,0,0,1,.785-1.12,2.917,2.917,0,0,1,1.07-.61A3.863,3.863,0,0,1,6.74-7.14a4.4,4.4,0,0,1,1.015.1,3.482,3.482,0,0,1,.685.23v2.08H7.34V-5.87a4.014,4.014,0,0,0-.64-.05,1.805,1.805,0,0,0-.725.145,1.566,1.566,0,0,0-.585.445A2.154,2.154,0,0,0,5-4.575,3.673,3.673,0,0,0,4.86-3.5a3.505,3.505,0,0,0,.13.985,2.255,2.255,0,0,0,.38.765,1.719,1.719,0,0,0,.61.5,1.852,1.852,0,0,0,.82.175,3.361,3.361,0,0,0,.64-.06Z" transform="translate(-817 1268)" fill="#fff"/>
    <path id="Path_9" data-name="Path 9" d="M-13.46-3.45h2.91V-2.3h-2.91ZM-7.94-1.1h1.53V-5.47L-7.73-4.46l-.6-.8L-6.05-7h.88v5.9h1.5V0H-7.94Zm5.32-2.41a6,6,0,0,1,.19-1.595A3.294,3.294,0,0,1-1.895-6.24a2.22,2.22,0,0,1,.825-.675A2.49,2.49,0,0,1,0-7.14a2.3,2.3,0,0,1,1.94.885A4.5,4.5,0,0,1,2.62-3.51a6.039,6.039,0,0,1-.19,1.605,3.35,3.35,0,0,1-.535,1.14,2.192,2.192,0,0,1-.83.68A2.524,2.524,0,0,1-.01.14,2.239,2.239,0,0,1-1.95-.795,4.63,4.63,0,0,1-2.62-3.51Zm3.96,0q0-.16,0-.3T1.32-4.1L-1.13-1.87A1.149,1.149,0,0,0,0-.96a1.09,1.09,0,0,0,.99-.61A4.066,4.066,0,0,0,1.34-3.51Zm-2.68,0q0,.15,0,.285t.015.275L1.12-5.18A1.128,1.128,0,0,0-.01-6.04,1.078,1.078,0,0,0-1-5.425,4.065,4.065,0,0,0-1.34-3.51ZM4.34-5.48a1.7,1.7,0,0,1,.13-.675,1.605,1.605,0,0,1,.355-.525,1.6,1.6,0,0,1,.52-.34,1.669,1.669,0,0,1,.635-.12,1.887,1.887,0,0,1,.645.11A1.539,1.539,0,0,1,7.16-6.7a1.5,1.5,0,0,1,.36.525,1.8,1.8,0,0,1,.13.7,1.758,1.758,0,0,1-.13.695,1.464,1.464,0,0,1-.36.515,1.578,1.578,0,0,1-.535.32,1.887,1.887,0,0,1-.645.11,1.8,1.8,0,0,1-.635-.11,1.545,1.545,0,0,1-.52-.32,1.5,1.5,0,0,1-.355-.515A1.758,1.758,0,0,1,4.34-5.48Zm1,0a.672.672,0,0,0,.19.5.635.635,0,0,0,.46.185.67.67,0,0,0,.47-.185.654.654,0,0,0,.2-.5.687.687,0,0,0-.2-.515.651.651,0,0,0-.47-.2.619.619,0,0,0-.46.2A.706.706,0,0,0,5.34-5.48Zm8.1,3.13h1.1v2a2.457,2.457,0,0,1-.815.36A3.979,3.979,0,0,1,12.71.14a4,4,0,0,1-1.255-.2,2.69,2.69,0,0,1-1.045-.63,3.109,3.109,0,0,1-.72-1.13A4.663,4.663,0,0,1,9.42-3.5a4.3,4.3,0,0,1,.305-1.725,3.167,3.167,0,0,1,.785-1.12,2.917,2.917,0,0,1,1.07-.61,3.863,3.863,0,0,1,1.16-.185,4.4,4.4,0,0,1,1.015.1,3.482,3.482,0,0,1,.685.23v2.08h-1.1V-5.87a4.014,4.014,0,0,0-.64-.05,1.805,1.805,0,0,0-.725.145,1.566,1.566,0,0,0-.585.445,2.154,2.154,0,0,0-.39.755A3.673,3.673,0,0,0,10.86-3.5a3.505,3.505,0,0,0,.13.985,2.255,2.255,0,0,0,.38.765,1.719,1.719,0,0,0,.61.5,1.852,1.852,0,0,0,.82.175,3.361,3.361,0,0,0,.64-.06Z" transform="translate(-878 1268)" fill="#fff"/>
    <path id="Path_10" data-name="Path 10" d="M-13.46-3.45h2.91V-2.3h-2.91ZM-3.77,0H-8.23V-.97q.12-.1.3-.265t.4-.375q.225-.21.475-.46t.49-.52q.34-.38.595-.69a4.912,4.912,0,0,0,.42-.585A2.4,2.4,0,0,0-5.3-4.4a1.876,1.876,0,0,0,.08-.545.9.9,0,0,0-.09-.39,1.063,1.063,0,0,0-.25-.335,1.2,1.2,0,0,0-.385-.23A1.39,1.39,0,0,0-6.44-5.99a1.862,1.862,0,0,0-.655.11,2.231,2.231,0,0,0-.615.37l-.52-.92a4.4,4.4,0,0,1,.935-.5,3.187,3.187,0,0,1,1.185-.2,2.823,2.823,0,0,1,.825.12,2.167,2.167,0,0,1,.7.355A1.723,1.723,0,0,1-4.1-6.08a1.747,1.747,0,0,1,.18.81,3.035,3.035,0,0,1-.055.595,2.9,2.9,0,0,1-.17.55,3.736,3.736,0,0,1-.3.565q-.185.29-.445.63-.2.26-.435.525t-.465.5q-.23.24-.455.45t-.405.35h2.88Zm1.15-3.51a6,6,0,0,1,.19-1.595A3.294,3.294,0,0,1-1.895-6.24a2.22,2.22,0,0,1,.825-.675A2.49,2.49,0,0,1,0-7.14a2.3,2.3,0,0,1,1.94.885A4.5,4.5,0,0,1,2.62-3.51a6.039,6.039,0,0,1-.19,1.605,3.35,3.35,0,0,1-.535,1.14,2.192,2.192,0,0,1-.83.68A2.524,2.524,0,0,1-.01.14,2.239,2.239,0,0,1-1.95-.795,4.63,4.63,0,0,1-2.62-3.51Zm3.96,0q0-.16,0-.3T1.32-4.1L-1.13-1.87A1.149,1.149,0,0,0,0-.96a1.09,1.09,0,0,0,.99-.61A4.066,4.066,0,0,0,1.34-3.51Zm-2.68,0q0,.15,0,.285t.015.275L1.12-5.18A1.128,1.128,0,0,0-.01-6.04,1.078,1.078,0,0,0-1-5.425,4.065,4.065,0,0,0-1.34-3.51ZM4.34-5.48a1.7,1.7,0,0,1,.13-.675,1.605,1.605,0,0,1,.355-.525,1.6,1.6,0,0,1,.52-.34,1.669,1.669,0,0,1,.635-.12,1.887,1.887,0,0,1,.645.11A1.539,1.539,0,0,1,7.16-6.7a1.5,1.5,0,0,1,.36.525,1.8,1.8,0,0,1,.13.7,1.758,1.758,0,0,1-.13.695,1.464,1.464,0,0,1-.36.515,1.578,1.578,0,0,1-.535.32,1.887,1.887,0,0,1-.645.11,1.8,1.8,0,0,1-.635-.11,1.545,1.545,0,0,1-.52-.32,1.5,1.5,0,0,1-.355-.515A1.758,1.758,0,0,1,4.34-5.48Zm1,0a.672.672,0,0,0,.19.5.635.635,0,0,0,.46.185.67.67,0,0,0,.47-.185.654.654,0,0,0,.2-.5.687.687,0,0,0-.2-.515.651.651,0,0,0-.47-.2.619.619,0,0,0-.46.2A.706.706,0,0,0,5.34-5.48Zm8.1,3.13h1.1v2a2.457,2.457,0,0,1-.815.36A3.979,3.979,0,0,1,12.71.14a4,4,0,0,1-1.255-.2,2.69,2.69,0,0,1-1.045-.63,3.109,3.109,0,0,1-.72-1.13A4.663,4.663,0,0,1,9.42-3.5a4.3,4.3,0,0,1,.305-1.725,3.167,3.167,0,0,1,.785-1.12,2.917,2.917,0,0,1,1.07-.61,3.863,3.863,0,0,1,1.16-.185,4.4,4.4,0,0,1,1.015.1,3.482,3.482,0,0,1,.685.23v2.08h-1.1V-5.87a4.014,4.014,0,0,0-.64-.05,1.805,1.805,0,0,0-.725.145,1.566,1.566,0,0,0-.585.445,2.154,2.154,0,0,0-.39.755A3.673,3.673,0,0,0,10.86-3.5a3.505,3.505,0,0,0,.13.985,2.255,2.255,0,0,0,.38.765,1.719,1.719,0,0,0,.61.5,1.852,1.852,0,0,0,.82.175,3.361,3.361,0,0,0,.64-.06Z" transform="translate(-946 1268)" fill="#fff"/>
    <path id="Path_7" data-name="Path 7" d="M-10.94-1.1h1.53V-5.47l-1.32,1.01-.6-.8L-9.05-7h.88v5.9h1.5V0h-4.27Zm5.32-2.41a6,6,0,0,1,.19-1.595A3.294,3.294,0,0,1-4.895-6.24a2.22,2.22,0,0,1,.825-.675A2.49,2.49,0,0,1-3-7.14a2.3,2.3,0,0,1,1.94.885A4.5,4.5,0,0,1-.38-3.51,6.039,6.039,0,0,1-.57-1.905a3.35,3.35,0,0,1-.535,1.14,2.192,2.192,0,0,1-.83.68A2.524,2.524,0,0,1-3.01.14,2.239,2.239,0,0,1-4.95-.795,4.63,4.63,0,0,1-5.62-3.51Zm3.96,0q0-.16,0-.3T-1.68-4.1L-4.13-1.87A1.149,1.149,0,0,0-3-.96a1.09,1.09,0,0,0,.99-.61A4.066,4.066,0,0,0-1.66-3.51Zm-2.68,0q0,.15.005.285t.015.275l2.44-2.23a1.128,1.128,0,0,0-1.13-.86A1.078,1.078,0,0,0-4-5.425,4.065,4.065,0,0,0-4.34-3.51ZM1.34-5.48a1.7,1.7,0,0,1,.13-.675,1.605,1.605,0,0,1,.355-.525,1.6,1.6,0,0,1,.52-.34,1.669,1.669,0,0,1,.635-.12,1.887,1.887,0,0,1,.645.11A1.539,1.539,0,0,1,4.16-6.7a1.5,1.5,0,0,1,.36.525,1.8,1.8,0,0,1,.13.7,1.758,1.758,0,0,1-.13.695,1.464,1.464,0,0,1-.36.515,1.578,1.578,0,0,1-.535.32,1.887,1.887,0,0,1-.645.11,1.8,1.8,0,0,1-.635-.11,1.545,1.545,0,0,1-.52-.32,1.5,1.5,0,0,1-.355-.515A1.758,1.758,0,0,1,1.34-5.48Zm1,0a.672.672,0,0,0,.19.5.635.635,0,0,0,.46.185.67.67,0,0,0,.47-.185.654.654,0,0,0,.2-.5.687.687,0,0,0-.2-.515.651.651,0,0,0-.47-.2.619.619,0,0,0-.46.2A.706.706,0,0,0,2.34-5.48Zm8.1,3.13h1.1v2a2.457,2.457,0,0,1-.815.36A3.979,3.979,0,0,1,9.71.14a4,4,0,0,1-1.255-.2A2.69,2.69,0,0,1,7.41-.685a3.109,3.109,0,0,1-.72-1.13A4.663,4.663,0,0,1,6.42-3.5a4.3,4.3,0,0,1,.3-1.725,3.167,3.167,0,0,1,.785-1.12,2.917,2.917,0,0,1,1.07-.61A3.863,3.863,0,0,1,9.74-7.14a4.4,4.4,0,0,1,1.015.1,3.482,3.482,0,0,1,.685.23v2.08h-1.1V-5.87a4.014,4.014,0,0,0-.64-.05,1.805,1.805,0,0,0-.725.145,1.566,1.566,0,0,0-.585.445A2.154,2.154,0,0,0,8-4.575,3.673,3.673,0,0,0,7.86-3.5a3.505,3.505,0,0,0,.13.985,2.255,2.255,0,0,0,.38.765,1.719,1.719,0,0,0,.61.5,1.852,1.852,0,0,0,.82.175,3.361,3.361,0,0,0,.64-.06Z" transform="translate(-758 1268)" fill="#fff"/>
    <path id="Path_6" data-name="Path 6" d="M-6.77,0h-4.46V-.97q.12-.1.3-.265t.405-.375q.225-.21.475-.46t.49-.52q.34-.38.595-.69a4.912,4.912,0,0,0,.42-.585A2.4,2.4,0,0,0-8.3-4.4a1.876,1.876,0,0,0,.08-.545.9.9,0,0,0-.09-.39,1.063,1.063,0,0,0-.25-.335,1.2,1.2,0,0,0-.385-.23A1.39,1.39,0,0,0-9.44-5.99a1.862,1.862,0,0,0-.655.11,2.231,2.231,0,0,0-.615.37l-.52-.92a4.4,4.4,0,0,1,.935-.5,3.187,3.187,0,0,1,1.185-.2,2.823,2.823,0,0,1,.825.12,2.167,2.167,0,0,1,.7.355A1.723,1.723,0,0,1-7.1-6.08a1.747,1.747,0,0,1,.18.81,3.035,3.035,0,0,1-.055.595,2.9,2.9,0,0,1-.17.55,3.736,3.736,0,0,1-.3.565q-.185.29-.445.63-.2.26-.435.525t-.465.5q-.23.24-.455.45t-.4.35h2.88Zm1.15-3.51a6,6,0,0,1,.19-1.595A3.294,3.294,0,0,1-4.895-6.24a2.22,2.22,0,0,1,.825-.675A2.49,2.49,0,0,1-3-7.14a2.3,2.3,0,0,1,1.94.885A4.5,4.5,0,0,1-.38-3.51,6.039,6.039,0,0,1-.57-1.905a3.35,3.35,0,0,1-.535,1.14,2.192,2.192,0,0,1-.83.68A2.524,2.524,0,0,1-3.01.14,2.239,2.239,0,0,1-4.95-.795,4.63,4.63,0,0,1-5.62-3.51Zm3.96,0q0-.16,0-.3T-1.68-4.1L-4.13-1.87A1.149,1.149,0,0,0-3-.96a1.09,1.09,0,0,0,.99-.61A4.066,4.066,0,0,0-1.66-3.51Zm-2.68,0q0,.15.005.285t.015.275l2.44-2.23a1.128,1.128,0,0,0-1.13-.86A1.078,1.078,0,0,0-4-5.425,4.065,4.065,0,0,0-4.34-3.51ZM1.34-5.48a1.7,1.7,0,0,1,.13-.675,1.605,1.605,0,0,1,.355-.525,1.6,1.6,0,0,1,.52-.34,1.669,1.669,0,0,1,.635-.12,1.887,1.887,0,0,1,.645.11A1.539,1.539,0,0,1,4.16-6.7a1.5,1.5,0,0,1,.36.525,1.8,1.8,0,0,1,.13.7,1.758,1.758,0,0,1-.13.695,1.464,1.464,0,0,1-.36.515,1.578,1.578,0,0,1-.535.32,1.887,1.887,0,0,1-.645.11,1.8,1.8,0,0,1-.635-.11,1.545,1.545,0,0,1-.52-.32,1.5,1.5,0,0,1-.355-.515A1.758,1.758,0,0,1,1.34-5.48Zm1,0a.672.672,0,0,0,.19.5.635.635,0,0,0,.46.185.67.67,0,0,0,.47-.185.654.654,0,0,0,.2-.5.687.687,0,0,0-.2-.515.651.651,0,0,0-.47-.2.619.619,0,0,0-.46.2A.706.706,0,0,0,2.34-5.48Zm8.1,3.13h1.1v2a2.457,2.457,0,0,1-.815.36A3.979,3.979,0,0,1,9.71.14a4,4,0,0,1-1.255-.2A2.69,2.69,0,0,1,7.41-.685a3.109,3.109,0,0,1-.72-1.13A4.663,4.663,0,0,1,6.42-3.5a4.3,4.3,0,0,1,.3-1.725,3.167,3.167,0,0,1,.785-1.12,2.917,2.917,0,0,1,1.07-.61A3.863,3.863,0,0,1,9.74-7.14a4.4,4.4,0,0,1,1.015.1,3.482,3.482,0,0,1,.685.23v2.08h-1.1V-5.87a4.014,4.014,0,0,0-.64-.05,1.805,1.805,0,0,0-.725.145,1.566,1.566,0,0,0-.585.445A2.154,2.154,0,0,0,8-4.575,3.673,3.673,0,0,0,7.86-3.5a3.505,3.505,0,0,0,.13.985,2.255,2.255,0,0,0,.38.765,1.719,1.719,0,0,0,.61.5,1.852,1.852,0,0,0,.82.175,3.361,3.361,0,0,0,.64-.06Z" transform="translate(-696 1268)" fill="#fff"/>
    <path id="Path_5" data-name="Path 5" d="M-9.52-.96a2.041,2.041,0,0,0,.605-.085,1.421,1.421,0,0,0,.47-.24,1.157,1.157,0,0,0,.305-.36.926.926,0,0,0,.11-.445.953.953,0,0,0-.125-.5A.9.9,0,0,0-8.5-2.92a1.652,1.652,0,0,0-.53-.17,4.214,4.214,0,0,0-.67-.05h-.56v-.71L-8.58-5.9h-2.53V-7h4.08v.91L-8.79-4.08h.23a1.975,1.975,0,0,1,.68.12A1.685,1.685,0,0,1-7.3-3.6a1.774,1.774,0,0,1,.41.6,2.083,2.083,0,0,1,.155.83,2.053,2.053,0,0,1-.235,1,2.281,2.281,0,0,1-.62.725,2.655,2.655,0,0,1-.885.44A3.679,3.679,0,0,1-9.5.14a5.132,5.132,0,0,1-.9-.08,4.334,4.334,0,0,1-.87-.25l.35-1.08a1.41,1.41,0,0,0,.245.1q.155.05.35.1a3.859,3.859,0,0,0,.4.08A2.794,2.794,0,0,0-9.52-.96Zm3.9-2.55a6,6,0,0,1,.19-1.595A3.294,3.294,0,0,1-4.895-6.24a2.22,2.22,0,0,1,.825-.675A2.49,2.49,0,0,1-3-7.14a2.3,2.3,0,0,1,1.94.885A4.5,4.5,0,0,1-.38-3.51,6.039,6.039,0,0,1-.57-1.905a3.35,3.35,0,0,1-.535,1.14,2.192,2.192,0,0,1-.83.68A2.524,2.524,0,0,1-3.01.14,2.239,2.239,0,0,1-4.95-.795,4.63,4.63,0,0,1-5.62-3.51Zm3.96,0q0-.16,0-.3T-1.68-4.1L-4.13-1.87A1.149,1.149,0,0,0-3-.96a1.09,1.09,0,0,0,.99-.61A4.066,4.066,0,0,0-1.66-3.51Zm-2.68,0q0,.15.005.285t.015.275l2.44-2.23a1.128,1.128,0,0,0-1.13-.86A1.078,1.078,0,0,0-4-5.425,4.065,4.065,0,0,0-4.34-3.51ZM1.34-5.48a1.7,1.7,0,0,1,.13-.675,1.605,1.605,0,0,1,.355-.525,1.6,1.6,0,0,1,.52-.34,1.669,1.669,0,0,1,.635-.12,1.887,1.887,0,0,1,.645.11A1.539,1.539,0,0,1,4.16-6.7a1.5,1.5,0,0,1,.36.525,1.8,1.8,0,0,1,.13.7,1.758,1.758,0,0,1-.13.695,1.464,1.464,0,0,1-.36.515,1.578,1.578,0,0,1-.535.32,1.887,1.887,0,0,1-.645.11,1.8,1.8,0,0,1-.635-.11,1.545,1.545,0,0,1-.52-.32,1.5,1.5,0,0,1-.355-.515A1.758,1.758,0,0,1,1.34-5.48Zm1,0a.672.672,0,0,0,.19.5.635.635,0,0,0,.46.185.67.67,0,0,0,.47-.185.654.654,0,0,0,.2-.5.687.687,0,0,0-.2-.515.651.651,0,0,0-.47-.2.619.619,0,0,0-.46.2A.706.706,0,0,0,2.34-5.48Zm8.1,3.13h1.1v2a2.457,2.457,0,0,1-.815.36A3.979,3.979,0,0,1,9.71.14a4,4,0,0,1-1.255-.2A2.69,2.69,0,0,1,7.41-.685a3.109,3.109,0,0,1-.72-1.13A4.663,4.663,0,0,1,6.42-3.5a4.3,4.3,0,0,1,.3-1.725,3.167,3.167,0,0,1,.785-1.12,2.917,2.917,0,0,1,1.07-.61A3.863,3.863,0,0,1,9.74-7.14a4.4,4.4,0,0,1,1.015.1,3.482,3.482,0,0,1,.685.23v2.08h-1.1V-5.87a4.014,4.014,0,0,0-.64-.05,1.805,1.805,0,0,0-.725.145,1.566,1.566,0,0,0-.585.445A2.154,2.154,0,0,0,8-4.575,3.673,3.673,0,0,0,7.86-3.5a3.505,3.505,0,0,0,.13.985,2.255,2.255,0,0,0,.38.765,1.719,1.719,0,0,0,.61.5,1.852,1.852,0,0,0,.82.175,3.361,3.361,0,0,0,.64-.06Z" transform="translate(-635 1268)" fill="#fff"/>
    <path id="Path_4" data-name="Path 4" d="M-6.23-1.95h-1.2V0H-8.64V-1.95h-3.03v-.89L-8.5-7.05h1.07v4.06h1.2ZM-8.64-5.21l-1.74,2.22h1.74Zm3.02,1.7a6,6,0,0,1,.19-1.595A3.294,3.294,0,0,1-4.895-6.24a2.22,2.22,0,0,1,.825-.675A2.49,2.49,0,0,1-3-7.14a2.3,2.3,0,0,1,1.94.885A4.5,4.5,0,0,1-.38-3.51,6.039,6.039,0,0,1-.57-1.905a3.35,3.35,0,0,1-.535,1.14,2.192,2.192,0,0,1-.83.68A2.524,2.524,0,0,1-3.01.14,2.239,2.239,0,0,1-4.95-.795,4.63,4.63,0,0,1-5.62-3.51Zm3.96,0q0-.16,0-.3T-1.68-4.1L-4.13-1.87A1.149,1.149,0,0,0-3-.96a1.09,1.09,0,0,0,.99-.61A4.066,4.066,0,0,0-1.66-3.51Zm-2.68,0q0,.15.005.285t.015.275l2.44-2.23a1.128,1.128,0,0,0-1.13-.86A1.078,1.078,0,0,0-4-5.425,4.065,4.065,0,0,0-4.34-3.51ZM1.34-5.48a1.7,1.7,0,0,1,.13-.675,1.605,1.605,0,0,1,.355-.525,1.6,1.6,0,0,1,.52-.34,1.669,1.669,0,0,1,.635-.12,1.887,1.887,0,0,1,.645.11A1.539,1.539,0,0,1,4.16-6.7a1.5,1.5,0,0,1,.36.525,1.8,1.8,0,0,1,.13.7,1.758,1.758,0,0,1-.13.695,1.464,1.464,0,0,1-.36.515,1.578,1.578,0,0,1-.535.32,1.887,1.887,0,0,1-.645.11,1.8,1.8,0,0,1-.635-.11,1.545,1.545,0,0,1-.52-.32,1.5,1.5,0,0,1-.355-.515A1.758,1.758,0,0,1,1.34-5.48Zm1,0a.672.672,0,0,0,.19.5.635.635,0,0,0,.46.185.67.67,0,0,0,.47-.185.654.654,0,0,0,.2-.5.687.687,0,0,0-.2-.515.651.651,0,0,0-.47-.2.619.619,0,0,0-.46.2A.706.706,0,0,0,2.34-5.48Zm8.1,3.13h1.1v2a2.457,2.457,0,0,1-.815.36A3.979,3.979,0,0,1,9.71.14a4,4,0,0,1-1.255-.2A2.69,2.69,0,0,1,7.41-.685a3.109,3.109,0,0,1-.72-1.13A4.663,4.663,0,0,1,6.42-3.5a4.3,4.3,0,0,1,.3-1.725,3.167,3.167,0,0,1,.785-1.12,2.917,2.917,0,0,1,1.07-.61A3.863,3.863,0,0,1,9.74-7.14a4.4,4.4,0,0,1,1.015.1,3.482,3.482,0,0,1,.685.23v2.08h-1.1V-5.87a4.014,4.014,0,0,0-.64-.05,1.805,1.805,0,0,0-.725.145,1.566,1.566,0,0,0-.585.445A2.154,2.154,0,0,0,8-4.575,3.673,3.673,0,0,0,7.86-3.5a3.505,3.505,0,0,0,.13.985,2.255,2.255,0,0,0,.38.765,1.719,1.719,0,0,0,.61.5,1.852,1.852,0,0,0,.82.175,3.361,3.361,0,0,0,.64-.06Z" transform="translate(-573 1268)" fill="#fff"/>
  </g>
</svg>
